<?xml version="1.0" encoding="utf-8" standalone="no"?>
<!DOCTYPE svg PUBLIC "-//W3C//DTD SVG 1.1//EN"
  "http://www.w3.org/Graphics/SVG/1.1/DTD/svg11.dtd">
<!-- Created with matplotlib (https://matplotlib.org/) -->
<svg height="269.93875pt" version="1.1" viewBox="0 0 433.4585 269.93875" width="433.4585pt" xmlns="http://www.w3.org/2000/svg" xmlns:xlink="http://www.w3.org/1999/xlink">
 <metadata>
  <rdf:RDF xmlns:cc="http://creativecommons.org/ns#" xmlns:dc="http://purl.org/dc/elements/1.1/" xmlns:rdf="http://www.w3.org/1999/02/22-rdf-syntax-ns#">
   <cc:Work>
    <dc:type rdf:resource="http://purl.org/dc/dcmitype/StillImage"/>
    <dc:date>2021-03-19T13:59:18.538436</dc:date>
    <dc:format>image/svg+xml</dc:format>
    <dc:creator>
     <cc:Agent>
      <dc:title>Matplotlib v3.3.3, https://matplotlib.org/</dc:title>
     </cc:Agent>
    </dc:creator>
   </cc:Work>
  </rdf:RDF>
 </metadata>
 <defs>
  <style type="text/css">*{stroke-linecap:butt;stroke-linejoin:round;}</style>
 </defs>
 <g id="figure_1">
  <g id="patch_1">
   <path d="M 0 269.93875 
L 433.4585 269.93875 
L 433.4585 0 
L 0 0 
z
" style="fill:none;"/>
  </g>
  <g id="axes_1">
   <g id="patch_2">
    <path d="M 80.326313 224.64 
L 415.126313 224.64 
L 415.126313 7.2 
L 80.326313 7.2 
z
" style="fill:#ffffff;"/>
   </g>
   <g id="matplotlib.axis_1">
    <g id="xtick_1">
     <g id="line2d_1">
      <defs>
       <path d="M 0 0 
L 0 3.5 
" id="mcf6d01b0fc" style="stroke:#000000;stroke-width:0.8;"/>
      </defs>
      <g>
       <use style="stroke:#000000;stroke-width:0.8;" x="80.326313" xlink:href="#mcf6d01b0fc" y="224.64"/>
      </g>
     </g>
     <g id="text_1">
      <!-- 0.0 -->
      <g transform="translate(69.194125 242.277813)scale(0.14 -0.14)">
       <defs>
        <path d="M 31.78125 66.40625 
Q 24.171875 66.40625 20.328125 58.90625 
Q 16.5 51.421875 16.5 36.375 
Q 16.5 21.390625 20.328125 13.890625 
Q 24.171875 6.390625 31.78125 6.390625 
Q 39.453125 6.390625 43.28125 13.890625 
Q 47.125 21.390625 47.125 36.375 
Q 47.125 51.421875 43.28125 58.90625 
Q 39.453125 66.40625 31.78125 66.40625 
z
M 31.78125 74.21875 
Q 44.046875 74.21875 50.515625 64.515625 
Q 56.984375 54.828125 56.984375 36.375 
Q 56.984375 17.96875 50.515625 8.265625 
Q 44.046875 -1.421875 31.78125 -1.421875 
Q 19.53125 -1.421875 13.0625 8.265625 
Q 6.59375 17.96875 6.59375 36.375 
Q 6.59375 54.828125 13.0625 64.515625 
Q 19.53125 74.21875 31.78125 74.21875 
z
" id="DejaVuSans-48"/>
        <path d="M 10.6875 12.40625 
L 21 12.40625 
L 21 0 
L 10.6875 0 
z
" id="DejaVuSans-46"/>
       </defs>
       <use xlink:href="#DejaVuSans-48"/>
       <use x="63.623047" xlink:href="#DejaVuSans-46"/>
       <use x="95.410156" xlink:href="#DejaVuSans-48"/>
      </g>
     </g>
    </g>
    <g id="xtick_2">
     <g id="line2d_2">
      <g>
       <use style="stroke:#000000;stroke-width:0.8;" x="164.026313" xlink:href="#mcf6d01b0fc" y="224.64"/>
      </g>
     </g>
     <g id="text_2">
      <!-- 0.5 -->
      <g transform="translate(152.894125 242.277813)scale(0.14 -0.14)">
       <defs>
        <path d="M 10.796875 72.90625 
L 49.515625 72.90625 
L 49.515625 64.59375 
L 19.828125 64.59375 
L 19.828125 46.734375 
Q 21.96875 47.46875 24.109375 47.828125 
Q 26.265625 48.1875 28.421875 48.1875 
Q 40.625 48.1875 47.75 41.5 
Q 54.890625 34.8125 54.890625 23.390625 
Q 54.890625 11.625 47.5625 5.09375 
Q 40.234375 -1.421875 26.90625 -1.421875 
Q 22.3125 -1.421875 17.546875 -0.640625 
Q 12.796875 0.140625 7.71875 1.703125 
L 7.71875 11.625 
Q 12.109375 9.234375 16.796875 8.0625 
Q 21.484375 6.890625 26.703125 6.890625 
Q 35.15625 6.890625 40.078125 11.328125 
Q 45.015625 15.765625 45.015625 23.390625 
Q 45.015625 31 40.078125 35.4375 
Q 35.15625 39.890625 26.703125 39.890625 
Q 22.75 39.890625 18.8125 39.015625 
Q 14.890625 38.140625 10.796875 36.28125 
z
" id="DejaVuSans-53"/>
       </defs>
       <use xlink:href="#DejaVuSans-48"/>
       <use x="63.623047" xlink:href="#DejaVuSans-46"/>
       <use x="95.410156" xlink:href="#DejaVuSans-53"/>
      </g>
     </g>
    </g>
    <g id="xtick_3">
     <g id="line2d_3">
      <g>
       <use style="stroke:#000000;stroke-width:0.8;" x="247.726313" xlink:href="#mcf6d01b0fc" y="224.64"/>
      </g>
     </g>
     <g id="text_3">
      <!-- 1.0 -->
      <g transform="translate(236.594125 242.277813)scale(0.14 -0.14)">
       <defs>
        <path d="M 12.40625 8.296875 
L 28.515625 8.296875 
L 28.515625 63.921875 
L 10.984375 60.40625 
L 10.984375 69.390625 
L 28.421875 72.90625 
L 38.28125 72.90625 
L 38.28125 8.296875 
L 54.390625 8.296875 
L 54.390625 0 
L 12.40625 0 
z
" id="DejaVuSans-49"/>
       </defs>
       <use xlink:href="#DejaVuSans-49"/>
       <use x="63.623047" xlink:href="#DejaVuSans-46"/>
       <use x="95.410156" xlink:href="#DejaVuSans-48"/>
      </g>
     </g>
    </g>
    <g id="xtick_4">
     <g id="line2d_4">
      <g>
       <use style="stroke:#000000;stroke-width:0.8;" x="331.426313" xlink:href="#mcf6d01b0fc" y="224.64"/>
      </g>
     </g>
     <g id="text_4">
      <!-- 1.5 -->
      <g transform="translate(320.294125 242.277813)scale(0.14 -0.14)">
       <use xlink:href="#DejaVuSans-49"/>
       <use x="63.623047" xlink:href="#DejaVuSans-46"/>
       <use x="95.410156" xlink:href="#DejaVuSans-53"/>
      </g>
     </g>
    </g>
    <g id="xtick_5">
     <g id="line2d_5">
      <g>
       <use style="stroke:#000000;stroke-width:0.8;" x="415.126313" xlink:href="#mcf6d01b0fc" y="224.64"/>
      </g>
     </g>
     <g id="text_5">
      <!-- 2.0 -->
      <g transform="translate(403.994125 242.277813)scale(0.14 -0.14)">
       <defs>
        <path d="M 19.1875 8.296875 
L 53.609375 8.296875 
L 53.609375 0 
L 7.328125 0 
L 7.328125 8.296875 
Q 12.9375 14.109375 22.625 23.890625 
Q 32.328125 33.6875 34.8125 36.53125 
Q 39.546875 41.84375 41.421875 45.53125 
Q 43.3125 49.21875 43.3125 52.78125 
Q 43.3125 58.59375 39.234375 62.25 
Q 35.15625 65.921875 28.609375 65.921875 
Q 23.96875 65.921875 18.8125 64.3125 
Q 13.671875 62.703125 7.8125 59.421875 
L 7.8125 69.390625 
Q 13.765625 71.78125 18.9375 73 
Q 24.125 74.21875 28.421875 74.21875 
Q 39.75 74.21875 46.484375 68.546875 
Q 53.21875 62.890625 53.21875 53.421875 
Q 53.21875 48.921875 51.53125 44.890625 
Q 49.859375 40.875 45.40625 35.40625 
Q 44.1875 33.984375 37.640625 27.21875 
Q 31.109375 20.453125 19.1875 8.296875 
z
" id="DejaVuSans-50"/>
       </defs>
       <use xlink:href="#DejaVuSans-50"/>
       <use x="63.623047" xlink:href="#DejaVuSans-46"/>
       <use x="95.410156" xlink:href="#DejaVuSans-48"/>
      </g>
     </g>
    </g>
    <g id="text_6">
     <!-- Relative Cytoplasmic Density -->
     <g transform="translate(145.439906 259.827188)scale(0.14 -0.14)">
      <defs>
       <path d="M 44.390625 34.1875 
Q 47.5625 33.109375 50.5625 29.59375 
Q 53.5625 26.078125 56.59375 19.921875 
L 66.609375 0 
L 56 0 
L 46.6875 18.703125 
Q 43.0625 26.03125 39.671875 28.421875 
Q 36.28125 30.8125 30.421875 30.8125 
L 19.671875 30.8125 
L 19.671875 0 
L 9.8125 0 
L 9.8125 72.90625 
L 32.078125 72.90625 
Q 44.578125 72.90625 50.734375 67.671875 
Q 56.890625 62.453125 56.890625 51.90625 
Q 56.890625 45.015625 53.6875 40.46875 
Q 50.484375 35.9375 44.390625 34.1875 
z
M 19.671875 64.796875 
L 19.671875 38.921875 
L 32.078125 38.921875 
Q 39.203125 38.921875 42.84375 42.21875 
Q 46.484375 45.515625 46.484375 51.90625 
Q 46.484375 58.296875 42.84375 61.546875 
Q 39.203125 64.796875 32.078125 64.796875 
z
" id="DejaVuSans-82"/>
       <path d="M 56.203125 29.59375 
L 56.203125 25.203125 
L 14.890625 25.203125 
Q 15.484375 15.921875 20.484375 11.0625 
Q 25.484375 6.203125 34.421875 6.203125 
Q 39.59375 6.203125 44.453125 7.46875 
Q 49.3125 8.734375 54.109375 11.28125 
L 54.109375 2.78125 
Q 49.265625 0.734375 44.1875 -0.34375 
Q 39.109375 -1.421875 33.890625 -1.421875 
Q 20.796875 -1.421875 13.15625 6.1875 
Q 5.515625 13.8125 5.515625 26.8125 
Q 5.515625 40.234375 12.765625 48.109375 
Q 20.015625 56 32.328125 56 
Q 43.359375 56 49.78125 48.890625 
Q 56.203125 41.796875 56.203125 29.59375 
z
M 47.21875 32.234375 
Q 47.125 39.59375 43.09375 43.984375 
Q 39.0625 48.390625 32.421875 48.390625 
Q 24.90625 48.390625 20.390625 44.140625 
Q 15.875 39.890625 15.1875 32.171875 
z
" id="DejaVuSans-101"/>
       <path d="M 9.421875 75.984375 
L 18.40625 75.984375 
L 18.40625 0 
L 9.421875 0 
z
" id="DejaVuSans-108"/>
       <path d="M 34.28125 27.484375 
Q 23.390625 27.484375 19.1875 25 
Q 14.984375 22.515625 14.984375 16.5 
Q 14.984375 11.71875 18.140625 8.90625 
Q 21.296875 6.109375 26.703125 6.109375 
Q 34.1875 6.109375 38.703125 11.40625 
Q 43.21875 16.703125 43.21875 25.484375 
L 43.21875 27.484375 
z
M 52.203125 31.203125 
L 52.203125 0 
L 43.21875 0 
L 43.21875 8.296875 
Q 40.140625 3.328125 35.546875 0.953125 
Q 30.953125 -1.421875 24.3125 -1.421875 
Q 15.921875 -1.421875 10.953125 3.296875 
Q 6 8.015625 6 15.921875 
Q 6 25.140625 12.171875 29.828125 
Q 18.359375 34.515625 30.609375 34.515625 
L 43.21875 34.515625 
L 43.21875 35.40625 
Q 43.21875 41.609375 39.140625 45 
Q 35.0625 48.390625 27.6875 48.390625 
Q 23 48.390625 18.546875 47.265625 
Q 14.109375 46.140625 10.015625 43.890625 
L 10.015625 52.203125 
Q 14.9375 54.109375 19.578125 55.046875 
Q 24.21875 56 28.609375 56 
Q 40.484375 56 46.34375 49.84375 
Q 52.203125 43.703125 52.203125 31.203125 
z
" id="DejaVuSans-97"/>
       <path d="M 18.3125 70.21875 
L 18.3125 54.6875 
L 36.8125 54.6875 
L 36.8125 47.703125 
L 18.3125 47.703125 
L 18.3125 18.015625 
Q 18.3125 11.328125 20.140625 9.421875 
Q 21.96875 7.515625 27.59375 7.515625 
L 36.8125 7.515625 
L 36.8125 0 
L 27.59375 0 
Q 17.1875 0 13.234375 3.875 
Q 9.28125 7.765625 9.28125 18.015625 
L 9.28125 47.703125 
L 2.6875 47.703125 
L 2.6875 54.6875 
L 9.28125 54.6875 
L 9.28125 70.21875 
z
" id="DejaVuSans-116"/>
       <path d="M 9.421875 54.6875 
L 18.40625 54.6875 
L 18.40625 0 
L 9.421875 0 
z
M 9.421875 75.984375 
L 18.40625 75.984375 
L 18.40625 64.59375 
L 9.421875 64.59375 
z
" id="DejaVuSans-105"/>
       <path d="M 2.984375 54.6875 
L 12.5 54.6875 
L 29.59375 8.796875 
L 46.6875 54.6875 
L 56.203125 54.6875 
L 35.6875 0 
L 23.484375 0 
z
" id="DejaVuSans-118"/>
       <path id="DejaVuSans-32"/>
       <path d="M 64.40625 67.28125 
L 64.40625 56.890625 
Q 59.421875 61.53125 53.78125 63.8125 
Q 48.140625 66.109375 41.796875 66.109375 
Q 29.296875 66.109375 22.65625 58.46875 
Q 16.015625 50.828125 16.015625 36.375 
Q 16.015625 21.96875 22.65625 14.328125 
Q 29.296875 6.6875 41.796875 6.6875 
Q 48.140625 6.6875 53.78125 8.984375 
Q 59.421875 11.28125 64.40625 15.921875 
L 64.40625 5.609375 
Q 59.234375 2.09375 53.4375 0.328125 
Q 47.65625 -1.421875 41.21875 -1.421875 
Q 24.65625 -1.421875 15.125 8.703125 
Q 5.609375 18.84375 5.609375 36.375 
Q 5.609375 53.953125 15.125 64.078125 
Q 24.65625 74.21875 41.21875 74.21875 
Q 47.75 74.21875 53.53125 72.484375 
Q 59.328125 70.75 64.40625 67.28125 
z
" id="DejaVuSans-67"/>
       <path d="M 32.171875 -5.078125 
Q 28.375 -14.84375 24.75 -17.8125 
Q 21.140625 -20.796875 15.09375 -20.796875 
L 7.90625 -20.796875 
L 7.90625 -13.28125 
L 13.1875 -13.28125 
Q 16.890625 -13.28125 18.9375 -11.515625 
Q 21 -9.765625 23.484375 -3.21875 
L 25.09375 0.875 
L 2.984375 54.6875 
L 12.5 54.6875 
L 29.59375 11.921875 
L 46.6875 54.6875 
L 56.203125 54.6875 
z
" id="DejaVuSans-121"/>
       <path d="M 30.609375 48.390625 
Q 23.390625 48.390625 19.1875 42.75 
Q 14.984375 37.109375 14.984375 27.296875 
Q 14.984375 17.484375 19.15625 11.84375 
Q 23.34375 6.203125 30.609375 6.203125 
Q 37.796875 6.203125 41.984375 11.859375 
Q 46.1875 17.53125 46.1875 27.296875 
Q 46.1875 37.015625 41.984375 42.703125 
Q 37.796875 48.390625 30.609375 48.390625 
z
M 30.609375 56 
Q 42.328125 56 49.015625 48.375 
Q 55.71875 40.765625 55.71875 27.296875 
Q 55.71875 13.875 49.015625 6.21875 
Q 42.328125 -1.421875 30.609375 -1.421875 
Q 18.84375 -1.421875 12.171875 6.21875 
Q 5.515625 13.875 5.515625 27.296875 
Q 5.515625 40.765625 12.171875 48.375 
Q 18.84375 56 30.609375 56 
z
" id="DejaVuSans-111"/>
       <path d="M 18.109375 8.203125 
L 18.109375 -20.796875 
L 9.078125 -20.796875 
L 9.078125 54.6875 
L 18.109375 54.6875 
L 18.109375 46.390625 
Q 20.953125 51.265625 25.265625 53.625 
Q 29.59375 56 35.59375 56 
Q 45.5625 56 51.78125 48.09375 
Q 58.015625 40.1875 58.015625 27.296875 
Q 58.015625 14.40625 51.78125 6.484375 
Q 45.5625 -1.421875 35.59375 -1.421875 
Q 29.59375 -1.421875 25.265625 0.953125 
Q 20.953125 3.328125 18.109375 8.203125 
z
M 48.6875 27.296875 
Q 48.6875 37.203125 44.609375 42.84375 
Q 40.53125 48.484375 33.40625 48.484375 
Q 26.265625 48.484375 22.1875 42.84375 
Q 18.109375 37.203125 18.109375 27.296875 
Q 18.109375 17.390625 22.1875 11.75 
Q 26.265625 6.109375 33.40625 6.109375 
Q 40.53125 6.109375 44.609375 11.75 
Q 48.6875 17.390625 48.6875 27.296875 
z
" id="DejaVuSans-112"/>
       <path d="M 44.28125 53.078125 
L 44.28125 44.578125 
Q 40.484375 46.53125 36.375 47.5 
Q 32.28125 48.484375 27.875 48.484375 
Q 21.1875 48.484375 17.84375 46.4375 
Q 14.5 44.390625 14.5 40.28125 
Q 14.5 37.15625 16.890625 35.375 
Q 19.28125 33.59375 26.515625 31.984375 
L 29.59375 31.296875 
Q 39.15625 29.25 43.1875 25.515625 
Q 47.21875 21.78125 47.21875 15.09375 
Q 47.21875 7.46875 41.1875 3.015625 
Q 35.15625 -1.421875 24.609375 -1.421875 
Q 20.21875 -1.421875 15.453125 -0.5625 
Q 10.6875 0.296875 5.421875 2 
L 5.421875 11.28125 
Q 10.40625 8.6875 15.234375 7.390625 
Q 20.0625 6.109375 24.8125 6.109375 
Q 31.15625 6.109375 34.5625 8.28125 
Q 37.984375 10.453125 37.984375 14.40625 
Q 37.984375 18.0625 35.515625 20.015625 
Q 33.0625 21.96875 24.703125 23.78125 
L 21.578125 24.515625 
Q 13.234375 26.265625 9.515625 29.90625 
Q 5.8125 33.546875 5.8125 39.890625 
Q 5.8125 47.609375 11.28125 51.796875 
Q 16.75 56 26.8125 56 
Q 31.78125 56 36.171875 55.265625 
Q 40.578125 54.546875 44.28125 53.078125 
z
" id="DejaVuSans-115"/>
       <path d="M 52 44.1875 
Q 55.375 50.25 60.0625 53.125 
Q 64.75 56 71.09375 56 
Q 79.640625 56 84.28125 50.015625 
Q 88.921875 44.046875 88.921875 33.015625 
L 88.921875 0 
L 79.890625 0 
L 79.890625 32.71875 
Q 79.890625 40.578125 77.09375 44.375 
Q 74.3125 48.1875 68.609375 48.1875 
Q 61.625 48.1875 57.5625 43.546875 
Q 53.515625 38.921875 53.515625 30.90625 
L 53.515625 0 
L 44.484375 0 
L 44.484375 32.71875 
Q 44.484375 40.625 41.703125 44.40625 
Q 38.921875 48.1875 33.109375 48.1875 
Q 26.21875 48.1875 22.15625 43.53125 
Q 18.109375 38.875 18.109375 30.90625 
L 18.109375 0 
L 9.078125 0 
L 9.078125 54.6875 
L 18.109375 54.6875 
L 18.109375 46.1875 
Q 21.1875 51.21875 25.484375 53.609375 
Q 29.78125 56 35.6875 56 
Q 41.65625 56 45.828125 52.96875 
Q 50 49.953125 52 44.1875 
z
" id="DejaVuSans-109"/>
       <path d="M 48.78125 52.59375 
L 48.78125 44.1875 
Q 44.96875 46.296875 41.140625 47.34375 
Q 37.3125 48.390625 33.40625 48.390625 
Q 24.65625 48.390625 19.8125 42.84375 
Q 14.984375 37.3125 14.984375 27.296875 
Q 14.984375 17.28125 19.8125 11.734375 
Q 24.65625 6.203125 33.40625 6.203125 
Q 37.3125 6.203125 41.140625 7.25 
Q 44.96875 8.296875 48.78125 10.40625 
L 48.78125 2.09375 
Q 45.015625 0.34375 40.984375 -0.53125 
Q 36.96875 -1.421875 32.421875 -1.421875 
Q 20.0625 -1.421875 12.78125 6.34375 
Q 5.515625 14.109375 5.515625 27.296875 
Q 5.515625 40.671875 12.859375 48.328125 
Q 20.21875 56 33.015625 56 
Q 37.15625 56 41.109375 55.140625 
Q 45.0625 54.296875 48.78125 52.59375 
z
" id="DejaVuSans-99"/>
       <path d="M 19.671875 64.796875 
L 19.671875 8.109375 
L 31.59375 8.109375 
Q 46.6875 8.109375 53.6875 14.9375 
Q 60.6875 21.78125 60.6875 36.53125 
Q 60.6875 51.171875 53.6875 57.984375 
Q 46.6875 64.796875 31.59375 64.796875 
z
M 9.8125 72.90625 
L 30.078125 72.90625 
Q 51.265625 72.90625 61.171875 64.09375 
Q 71.09375 55.28125 71.09375 36.53125 
Q 71.09375 17.671875 61.125 8.828125 
Q 51.171875 0 30.078125 0 
L 9.8125 0 
z
" id="DejaVuSans-68"/>
       <path d="M 54.890625 33.015625 
L 54.890625 0 
L 45.90625 0 
L 45.90625 32.71875 
Q 45.90625 40.484375 42.875 44.328125 
Q 39.84375 48.1875 33.796875 48.1875 
Q 26.515625 48.1875 22.3125 43.546875 
Q 18.109375 38.921875 18.109375 30.90625 
L 18.109375 0 
L 9.078125 0 
L 9.078125 54.6875 
L 18.109375 54.6875 
L 18.109375 46.1875 
Q 21.34375 51.125 25.703125 53.5625 
Q 30.078125 56 35.796875 56 
Q 45.21875 56 50.046875 50.171875 
Q 54.890625 44.34375 54.890625 33.015625 
z
" id="DejaVuSans-110"/>
      </defs>
      <use xlink:href="#DejaVuSans-82"/>
      <use x="64.982422" xlink:href="#DejaVuSans-101"/>
      <use x="126.505859" xlink:href="#DejaVuSans-108"/>
      <use x="154.289062" xlink:href="#DejaVuSans-97"/>
      <use x="215.568359" xlink:href="#DejaVuSans-116"/>
      <use x="254.777344" xlink:href="#DejaVuSans-105"/>
      <use x="282.560547" xlink:href="#DejaVuSans-118"/>
      <use x="341.740234" xlink:href="#DejaVuSans-101"/>
      <use x="403.263672" xlink:href="#DejaVuSans-32"/>
      <use x="435.050781" xlink:href="#DejaVuSans-67"/>
      <use x="504.875" xlink:href="#DejaVuSans-121"/>
      <use x="564.054688" xlink:href="#DejaVuSans-116"/>
      <use x="603.263672" xlink:href="#DejaVuSans-111"/>
      <use x="664.445312" xlink:href="#DejaVuSans-112"/>
      <use x="727.921875" xlink:href="#DejaVuSans-108"/>
      <use x="755.705078" xlink:href="#DejaVuSans-97"/>
      <use x="816.984375" xlink:href="#DejaVuSans-115"/>
      <use x="869.083984" xlink:href="#DejaVuSans-109"/>
      <use x="966.496094" xlink:href="#DejaVuSans-105"/>
      <use x="994.279297" xlink:href="#DejaVuSans-99"/>
      <use x="1049.259766" xlink:href="#DejaVuSans-32"/>
      <use x="1081.046875" xlink:href="#DejaVuSans-68"/>
      <use x="1158.048828" xlink:href="#DejaVuSans-101"/>
      <use x="1219.572266" xlink:href="#DejaVuSans-110"/>
      <use x="1282.951172" xlink:href="#DejaVuSans-115"/>
      <use x="1335.050781" xlink:href="#DejaVuSans-105"/>
      <use x="1362.833984" xlink:href="#DejaVuSans-116"/>
      <use x="1402.042969" xlink:href="#DejaVuSans-121"/>
     </g>
    </g>
   </g>
   <g id="matplotlib.axis_2">
    <g id="ytick_1">
     <g id="line2d_6">
      <defs>
       <path d="M 0 0 
L -3.5 0 
" id="m3d995f939f" style="stroke:#000000;stroke-width:0.8;"/>
      </defs>
      <g>
       <use style="stroke:#000000;stroke-width:0.8;" x="80.326313" xlink:href="#m3d995f939f" y="170.085124"/>
      </g>
     </g>
     <g id="text_7">
      <!-- $\mathdefault{10^{-2}}$ -->
      <g transform="translate(40.426313 175.40403)scale(0.14 -0.14)">
       <defs>
        <path d="M 10.59375 35.5 
L 73.1875 35.5 
L 73.1875 27.203125 
L 10.59375 27.203125 
z
" id="DejaVuSans-8722"/>
       </defs>
       <use transform="translate(0 0.765625)" xlink:href="#DejaVuSans-49"/>
       <use transform="translate(63.623047 0.765625)" xlink:href="#DejaVuSans-48"/>
       <use transform="translate(128.203125 39.046875)scale(0.7)" xlink:href="#DejaVuSans-8722"/>
       <use transform="translate(186.855469 39.046875)scale(0.7)" xlink:href="#DejaVuSans-50"/>
      </g>
     </g>
    </g>
    <g id="ytick_2">
     <g id="line2d_7">
      <g>
       <use style="stroke:#000000;stroke-width:0.8;" x="80.326313" xlink:href="#m3d995f939f" y="101.872798"/>
      </g>
     </g>
     <g id="text_8">
      <!-- $\mathdefault{10^{-1}}$ -->
      <g transform="translate(40.426313 107.191705)scale(0.14 -0.14)">
       <use transform="translate(0 0.684375)" xlink:href="#DejaVuSans-49"/>
       <use transform="translate(63.623047 0.684375)" xlink:href="#DejaVuSans-48"/>
       <use transform="translate(128.203125 38.965625)scale(0.7)" xlink:href="#DejaVuSans-8722"/>
       <use transform="translate(186.855469 38.965625)scale(0.7)" xlink:href="#DejaVuSans-49"/>
      </g>
     </g>
    </g>
    <g id="ytick_3">
     <g id="line2d_8">
      <g>
       <use style="stroke:#000000;stroke-width:0.8;" x="80.326313" xlink:href="#m3d995f939f" y="33.660473"/>
      </g>
     </g>
     <g id="text_9">
      <!-- $\mathdefault{10^{0}}$ -->
      <g transform="translate(48.686313 38.979379)scale(0.14 -0.14)">
       <use transform="translate(0 0.765625)" xlink:href="#DejaVuSans-49"/>
       <use transform="translate(63.623047 0.765625)" xlink:href="#DejaVuSans-48"/>
       <use transform="translate(128.203125 39.046875)scale(0.7)" xlink:href="#DejaVuSans-48"/>
      </g>
     </g>
    </g>
    <g id="ytick_4">
     <g id="line2d_9">
      <defs>
       <path d="M 0 0 
L -2 0 
" id="m1c3bd46d24" style="stroke:#000000;stroke-width:0.6;"/>
      </defs>
      <g>
       <use style="stroke:#000000;stroke-width:0.6;" x="80.326313" xlink:href="#m1c3bd46d24" y="217.763493"/>
      </g>
     </g>
    </g>
    <g id="ytick_5">
     <g id="line2d_10">
      <g>
       <use style="stroke:#000000;stroke-width:0.6;" x="80.326313" xlink:href="#m1c3bd46d24" y="205.751899"/>
      </g>
     </g>
    </g>
    <g id="ytick_6">
     <g id="line2d_11">
      <g>
       <use style="stroke:#000000;stroke-width:0.6;" x="80.326313" xlink:href="#m1c3bd46d24" y="197.229537"/>
      </g>
     </g>
    </g>
    <g id="ytick_7">
     <g id="line2d_12">
      <g>
       <use style="stroke:#000000;stroke-width:0.6;" x="80.326313" xlink:href="#m1c3bd46d24" y="190.61908"/>
      </g>
     </g>
    </g>
    <g id="ytick_8">
     <g id="line2d_13">
      <g>
       <use style="stroke:#000000;stroke-width:0.6;" x="80.326313" xlink:href="#m1c3bd46d24" y="185.217943"/>
      </g>
     </g>
    </g>
    <g id="ytick_9">
     <g id="line2d_14">
      <g>
       <use style="stroke:#000000;stroke-width:0.6;" x="80.326313" xlink:href="#m1c3bd46d24" y="180.651347"/>
      </g>
     </g>
    </g>
    <g id="ytick_10">
     <g id="line2d_15">
      <g>
       <use style="stroke:#000000;stroke-width:0.6;" x="80.326313" xlink:href="#m1c3bd46d24" y="176.695581"/>
      </g>
     </g>
    </g>
    <g id="ytick_11">
     <g id="line2d_16">
      <g>
       <use style="stroke:#000000;stroke-width:0.6;" x="80.326313" xlink:href="#m1c3bd46d24" y="173.206349"/>
      </g>
     </g>
    </g>
    <g id="ytick_12">
     <g id="line2d_17">
      <g>
       <use style="stroke:#000000;stroke-width:0.6;" x="80.326313" xlink:href="#m1c3bd46d24" y="149.551168"/>
      </g>
     </g>
    </g>
    <g id="ytick_13">
     <g id="line2d_18">
      <g>
       <use style="stroke:#000000;stroke-width:0.6;" x="80.326313" xlink:href="#m1c3bd46d24" y="137.539574"/>
      </g>
     </g>
    </g>
    <g id="ytick_14">
     <g id="line2d_19">
      <g>
       <use style="stroke:#000000;stroke-width:0.6;" x="80.326313" xlink:href="#m1c3bd46d24" y="129.017212"/>
      </g>
     </g>
    </g>
    <g id="ytick_15">
     <g id="line2d_20">
      <g>
       <use style="stroke:#000000;stroke-width:0.6;" x="80.326313" xlink:href="#m1c3bd46d24" y="122.406754"/>
      </g>
     </g>
    </g>
    <g id="ytick_16">
     <g id="line2d_21">
      <g>
       <use style="stroke:#000000;stroke-width:0.6;" x="80.326313" xlink:href="#m1c3bd46d24" y="117.005617"/>
      </g>
     </g>
    </g>
    <g id="ytick_17">
     <g id="line2d_22">
      <g>
       <use style="stroke:#000000;stroke-width:0.6;" x="80.326313" xlink:href="#m1c3bd46d24" y="112.439021"/>
      </g>
     </g>
    </g>
    <g id="ytick_18">
     <g id="line2d_23">
      <g>
       <use style="stroke:#000000;stroke-width:0.6;" x="80.326313" xlink:href="#m1c3bd46d24" y="108.483256"/>
      </g>
     </g>
    </g>
    <g id="ytick_19">
     <g id="line2d_24">
      <g>
       <use style="stroke:#000000;stroke-width:0.6;" x="80.326313" xlink:href="#m1c3bd46d24" y="104.994023"/>
      </g>
     </g>
    </g>
    <g id="ytick_20">
     <g id="line2d_25">
      <g>
       <use style="stroke:#000000;stroke-width:0.6;" x="80.326313" xlink:href="#m1c3bd46d24" y="81.338842"/>
      </g>
     </g>
    </g>
    <g id="ytick_21">
     <g id="line2d_26">
      <g>
       <use style="stroke:#000000;stroke-width:0.6;" x="80.326313" xlink:href="#m1c3bd46d24" y="69.327248"/>
      </g>
     </g>
    </g>
    <g id="ytick_22">
     <g id="line2d_27">
      <g>
       <use style="stroke:#000000;stroke-width:0.6;" x="80.326313" xlink:href="#m1c3bd46d24" y="60.804886"/>
      </g>
     </g>
    </g>
    <g id="ytick_23">
     <g id="line2d_28">
      <g>
       <use style="stroke:#000000;stroke-width:0.6;" x="80.326313" xlink:href="#m1c3bd46d24" y="54.194429"/>
      </g>
     </g>
    </g>
    <g id="ytick_24">
     <g id="line2d_29">
      <g>
       <use style="stroke:#000000;stroke-width:0.6;" x="80.326313" xlink:href="#m1c3bd46d24" y="48.793292"/>
      </g>
     </g>
    </g>
    <g id="ytick_25">
     <g id="line2d_30">
      <g>
       <use style="stroke:#000000;stroke-width:0.6;" x="80.326313" xlink:href="#m1c3bd46d24" y="44.226696"/>
      </g>
     </g>
    </g>
    <g id="ytick_26">
     <g id="line2d_31">
      <g>
       <use style="stroke:#000000;stroke-width:0.6;" x="80.326313" xlink:href="#m1c3bd46d24" y="40.27093"/>
      </g>
     </g>
    </g>
    <g id="ytick_27">
     <g id="line2d_32">
      <g>
       <use style="stroke:#000000;stroke-width:0.6;" x="80.326313" xlink:href="#m1c3bd46d24" y="36.781697"/>
      </g>
     </g>
    </g>
    <g id="ytick_28">
     <g id="line2d_33">
      <g>
       <use style="stroke:#000000;stroke-width:0.6;" x="80.326313" xlink:href="#m1c3bd46d24" y="13.126517"/>
      </g>
     </g>
    </g>
    <g id="text_10">
     <!-- Cdk1:CycB relative -->
     <g transform="translate(17.837812 182.425469)rotate(-90)scale(0.14 -0.14)">
      <defs>
       <path d="M 45.40625 46.390625 
L 45.40625 75.984375 
L 54.390625 75.984375 
L 54.390625 0 
L 45.40625 0 
L 45.40625 8.203125 
Q 42.578125 3.328125 38.25 0.953125 
Q 33.9375 -1.421875 27.875 -1.421875 
Q 17.96875 -1.421875 11.734375 6.484375 
Q 5.515625 14.40625 5.515625 27.296875 
Q 5.515625 40.1875 11.734375 48.09375 
Q 17.96875 56 27.875 56 
Q 33.9375 56 38.25 53.625 
Q 42.578125 51.265625 45.40625 46.390625 
z
M 14.796875 27.296875 
Q 14.796875 17.390625 18.875 11.75 
Q 22.953125 6.109375 30.078125 6.109375 
Q 37.203125 6.109375 41.296875 11.75 
Q 45.40625 17.390625 45.40625 27.296875 
Q 45.40625 37.203125 41.296875 42.84375 
Q 37.203125 48.484375 30.078125 48.484375 
Q 22.953125 48.484375 18.875 42.84375 
Q 14.796875 37.203125 14.796875 27.296875 
z
" id="DejaVuSans-100"/>
       <path d="M 9.078125 75.984375 
L 18.109375 75.984375 
L 18.109375 31.109375 
L 44.921875 54.6875 
L 56.390625 54.6875 
L 27.390625 29.109375 
L 57.625 0 
L 45.90625 0 
L 18.109375 26.703125 
L 18.109375 0 
L 9.078125 0 
z
" id="DejaVuSans-107"/>
       <path d="M 11.71875 12.40625 
L 22.015625 12.40625 
L 22.015625 0 
L 11.71875 0 
z
M 11.71875 51.703125 
L 22.015625 51.703125 
L 22.015625 39.3125 
L 11.71875 39.3125 
z
" id="DejaVuSans-58"/>
       <path d="M 19.671875 34.8125 
L 19.671875 8.109375 
L 35.5 8.109375 
Q 43.453125 8.109375 47.28125 11.40625 
Q 51.125 14.703125 51.125 21.484375 
Q 51.125 28.328125 47.28125 31.5625 
Q 43.453125 34.8125 35.5 34.8125 
z
M 19.671875 64.796875 
L 19.671875 42.828125 
L 34.28125 42.828125 
Q 41.5 42.828125 45.03125 45.53125 
Q 48.578125 48.25 48.578125 53.8125 
Q 48.578125 59.328125 45.03125 62.0625 
Q 41.5 64.796875 34.28125 64.796875 
z
M 9.8125 72.90625 
L 35.015625 72.90625 
Q 46.296875 72.90625 52.390625 68.21875 
Q 58.5 63.53125 58.5 54.890625 
Q 58.5 48.1875 55.375 44.234375 
Q 52.25 40.28125 46.1875 39.3125 
Q 53.46875 37.75 57.5 32.78125 
Q 61.53125 27.828125 61.53125 20.40625 
Q 61.53125 10.640625 54.890625 5.3125 
Q 48.25 0 35.984375 0 
L 9.8125 0 
z
" id="DejaVuSans-66"/>
       <path d="M 41.109375 46.296875 
Q 39.59375 47.171875 37.8125 47.578125 
Q 36.03125 48 33.890625 48 
Q 26.265625 48 22.1875 43.046875 
Q 18.109375 38.09375 18.109375 28.8125 
L 18.109375 0 
L 9.078125 0 
L 9.078125 54.6875 
L 18.109375 54.6875 
L 18.109375 46.1875 
Q 20.953125 51.171875 25.484375 53.578125 
Q 30.03125 56 36.53125 56 
Q 37.453125 56 38.578125 55.875 
Q 39.703125 55.765625 41.0625 55.515625 
z
" id="DejaVuSans-114"/>
      </defs>
      <use xlink:href="#DejaVuSans-67"/>
      <use x="69.824219" xlink:href="#DejaVuSans-100"/>
      <use x="133.300781" xlink:href="#DejaVuSans-107"/>
      <use x="191.210938" xlink:href="#DejaVuSans-49"/>
      <use x="254.833984" xlink:href="#DejaVuSans-58"/>
      <use x="288.525391" xlink:href="#DejaVuSans-67"/>
      <use x="358.349609" xlink:href="#DejaVuSans-121"/>
      <use x="417.529297" xlink:href="#DejaVuSans-99"/>
      <use x="472.509766" xlink:href="#DejaVuSans-66"/>
      <use x="541.113281" xlink:href="#DejaVuSans-32"/>
      <use x="572.900391" xlink:href="#DejaVuSans-114"/>
      <use x="611.763672" xlink:href="#DejaVuSans-101"/>
      <use x="673.287109" xlink:href="#DejaVuSans-108"/>
      <use x="701.070312" xlink:href="#DejaVuSans-97"/>
      <use x="762.349609" xlink:href="#DejaVuSans-116"/>
      <use x="801.558594" xlink:href="#DejaVuSans-105"/>
      <use x="829.341797" xlink:href="#DejaVuSans-118"/>
      <use x="888.521484" xlink:href="#DejaVuSans-101"/>
     </g>
     <!-- concentration (a.u.) -->
     <g transform="translate(33.51475 185.262656)rotate(-90)scale(0.14 -0.14)">
      <defs>
       <path d="M 31 75.875 
Q 24.46875 64.65625 21.28125 53.65625 
Q 18.109375 42.671875 18.109375 31.390625 
Q 18.109375 20.125 21.3125 9.0625 
Q 24.515625 -2 31 -13.1875 
L 23.1875 -13.1875 
Q 15.875 -1.703125 12.234375 9.375 
Q 8.59375 20.453125 8.59375 31.390625 
Q 8.59375 42.28125 12.203125 53.3125 
Q 15.828125 64.359375 23.1875 75.875 
z
" id="DejaVuSans-40"/>
       <path d="M 8.5 21.578125 
L 8.5 54.6875 
L 17.484375 54.6875 
L 17.484375 21.921875 
Q 17.484375 14.15625 20.5 10.265625 
Q 23.53125 6.390625 29.59375 6.390625 
Q 36.859375 6.390625 41.078125 11.03125 
Q 45.3125 15.671875 45.3125 23.6875 
L 45.3125 54.6875 
L 54.296875 54.6875 
L 54.296875 0 
L 45.3125 0 
L 45.3125 8.40625 
Q 42.046875 3.421875 37.71875 1 
Q 33.40625 -1.421875 27.6875 -1.421875 
Q 18.265625 -1.421875 13.375 4.4375 
Q 8.5 10.296875 8.5 21.578125 
z
M 31.109375 56 
z
" id="DejaVuSans-117"/>
       <path d="M 8.015625 75.875 
L 15.828125 75.875 
Q 23.140625 64.359375 26.78125 53.3125 
Q 30.421875 42.28125 30.421875 31.390625 
Q 30.421875 20.453125 26.78125 9.375 
Q 23.140625 -1.703125 15.828125 -13.1875 
L 8.015625 -13.1875 
Q 14.5 -2 17.703125 9.0625 
Q 20.90625 20.125 20.90625 31.390625 
Q 20.90625 42.671875 17.703125 53.65625 
Q 14.5 64.65625 8.015625 75.875 
z
" id="DejaVuSans-41"/>
      </defs>
      <use xlink:href="#DejaVuSans-99"/>
      <use x="54.980469" xlink:href="#DejaVuSans-111"/>
      <use x="116.162109" xlink:href="#DejaVuSans-110"/>
      <use x="179.541016" xlink:href="#DejaVuSans-99"/>
      <use x="234.521484" xlink:href="#DejaVuSans-101"/>
      <use x="296.044922" xlink:href="#DejaVuSans-110"/>
      <use x="359.423828" xlink:href="#DejaVuSans-116"/>
      <use x="398.632812" xlink:href="#DejaVuSans-114"/>
      <use x="439.746094" xlink:href="#DejaVuSans-97"/>
      <use x="501.025391" xlink:href="#DejaVuSans-116"/>
      <use x="540.234375" xlink:href="#DejaVuSans-105"/>
      <use x="568.017578" xlink:href="#DejaVuSans-111"/>
      <use x="629.199219" xlink:href="#DejaVuSans-110"/>
      <use x="692.578125" xlink:href="#DejaVuSans-32"/>
      <use x="724.365234" xlink:href="#DejaVuSans-40"/>
      <use x="763.378906" xlink:href="#DejaVuSans-97"/>
      <use x="824.658203" xlink:href="#DejaVuSans-46"/>
      <use x="856.445312" xlink:href="#DejaVuSans-117"/>
      <use x="919.824219" xlink:href="#DejaVuSans-46"/>
      <use x="951.611328" xlink:href="#DejaVuSans-41"/>
     </g>
    </g>
   </g>
   <g id="line2d_34">
    <path clip-path="url(#peebf61a8eb)" d="M 82.06056 200.836863 
L 82.120857 199.648098 
L 82.241569 197.382645 
L 82.483613 193.240537 
L 82.787561 188.655748 
L 83.093451 184.589899 
L 83.401769 180.937071 
L 83.713066 177.621094 
L 84.027912 174.585431 
L 84.346892 171.786977 
L 84.670627 169.192215 
L 84.999735 166.774702 
L 85.334787 164.512663 
L 85.676366 162.388764 
L 86.025044 160.388205 
L 86.381304 158.498611 
L 86.745651 156.709336 
L 87.118467 155.011494 
L 87.500156 153.396936 
L 87.891035 151.858637 
L 88.291405 150.390195 
L 88.701468 148.986321 
L 89.121442 147.64167 
L 89.551475 146.351823 
L 89.991704 145.112613 
L 90.442244 143.920348 
L 90.903163 142.771507 
L 91.374545 141.662949 
L 91.856423 140.591975 
L 92.348863 139.556045 
L 92.851884 138.552668 
L 93.36555 137.57989 
L 93.889881 136.635935 
L 94.424891 135.718904 
L 94.970632 134.827517 
L 95.52712 133.960507 
L 96.094355 133.116707 
L 96.672337 132.295283 
L 97.260999 131.49546 
L 97.860291 130.716743 
L 98.470296 129.958584 
L 99.090848 129.220687 
L 99.721946 128.50298 
L 100.363256 127.805593 
L 101.014776 127.128692 
L 101.676006 126.472554 
L 102.346946 125.837751 
L 103.027259 125.224932 
L 103.71611 124.634751 
L 104.413499 124.068066 
L 105.118587 123.525858 
L 105.831042 123.009053 
L 106.549857 122.518827 
L 107.274699 122.056131 
L 108.004563 121.622065 
L 108.738947 121.217652 
L 109.477014 120.843797 
L 110.217759 120.501479 
L 110.960847 120.191373 
L 111.705275 119.914149 
L 112.450373 119.670216 
L 113.19547 119.459906 
L 113.940233 119.28332 
L 114.683656 119.140501 
L 115.425573 119.031181 
L 116.165481 118.954991 
L 116.902878 118.911308 
L 117.637596 118.899516 
L 118.369134 118.918681 
L 119.097324 118.96786 
L 119.821999 119.045934 
L 120.542991 119.1517 
L 121.260132 119.283906 
L 121.973256 119.441192 
L 122.682363 119.622177 
L 123.387619 119.825391 
L 124.08869 120.049372 
L 124.785911 120.292708 
L 125.479115 120.553861 
L 126.168468 120.831435 
L 126.853971 121.124 
L 127.535624 121.430145 
L 128.213594 121.748466 
L 128.888048 122.077627 
L 129.558987 122.416413 
L 130.226579 122.763556 
L 130.890822 123.117849 
L 131.552052 123.478088 
L 132.210101 123.843323 
L 132.865137 124.212486 
L 133.379223 124.505429 
" style="fill:none;stroke:#ff0000;stroke-linecap:square;stroke-width:3;"/>
   </g>
   <g id="line2d_35">
    <path clip-path="url(#peebf61a8eb)" d="M 197.792567 137.966559 
L 206.810572 137.11554 
L 217.535053 135.866923 
L 231.674829 133.980729 
L 254.296762 130.703098 
L 296.227115 124.638967 
L 318.456161 121.676873 
L 338.800283 119.18819 
L 358.963613 116.950173 
L 378.430559 115.009681 
L 398.841641 113.202892 
L 419.662853 111.587122 
L 434.4585 110.568496 
L 434.4585 110.568496 
" style="fill:none;stroke:#ff0000;stroke-linecap:square;stroke-width:3;"/>
   </g>
   <g id="line2d_36">
    <path clip-path="url(#peebf61a8eb)" d="M 134.029572 124.879189 
L 134.677075 125.254269 
L 135.322067 125.629864 
L 135.964716 126.005198 
L 136.605021 126.379588 
L 137.24315 126.75239 
L 137.87927 127.122925 
L 138.513381 127.490626 
L 139.145651 127.855043 
L 139.776246 128.215636 
L 140.405336 128.571989 
L 141.032751 128.923673 
L 141.658659 129.270393 
L 142.283396 129.611848 
L 142.906961 129.947577 
L 143.529354 130.277493 
L 144.150743 130.601278 
L 144.771128 130.918769 
L 145.390675 131.229722 
L 146.009385 131.534055 
L 146.627426 131.83161 
L 147.244797 132.122312 
L 147.861666 132.406013 
L 148.478033 132.682732 
L 149.094065 132.952248 
L 149.709595 133.214764 
L 150.32479 133.470072 
L 150.93965 133.718137 
L 151.554343 133.959195 
L 152.168868 134.193056 
L 152.783226 134.4198 
L 153.397417 134.639428 
L 154.011608 134.852127 
L 154.625631 135.057827 
L 155.239654 135.256553 
L 155.853677 135.448522 
L 156.467533 135.63378 
L 157.081556 135.812284 
L 157.695579 135.984279 
L 158.309603 136.149741 
L 158.923626 136.308837 
L 159.537816 136.461649 
L 160.152007 136.608363 
L 160.766198 136.748884 
L 161.380388 136.883507 
L 161.994746 137.012341 
L 162.608937 137.135405 
L 163.223462 137.252821 
L 163.83782 137.364813 
L 164.452178 137.471417 
L 165.066704 137.572672 
L 165.681062 137.668819 
L 166.295587 137.760006 
L 166.909945 137.846186 
L 167.52447 137.927614 
L 168.138828 138.004351 
L 168.753186 138.076561 
L 169.367544 138.14421 
L 169.981735 138.20757 
L 170.596093 138.266714 
L 171.210116 138.321717 
L 171.824139 138.37276 
L 172.438163 138.419822 
L 173.052018 138.462985 
L 173.665707 138.502538 
L 174.279395 138.538468 
L 174.892749 138.570862 
L 175.506102 138.599811 
L 176.119289 138.625409 
L 176.732307 138.64785 
L 177.345159 138.667026 
L 177.957843 138.683238 
L 178.570192 138.696378 
L 179.182541 138.706648 
L 179.794556 138.714044 
L 180.406403 138.718771 
L 181.018082 138.720826 
L 181.629427 138.720209 
L 182.240604 138.717127 
L 182.851614 138.711579 
L 183.46229 138.703669 
L 184.072797 138.693503 
L 184.68297 138.68098 
L 185.292976 138.666308 
L 185.902647 138.649491 
L 186.511983 138.630531 
L 187.121151 138.609638 
L 187.729985 138.586816 
L 188.338484 138.56207 
L 188.946816 138.535506 
L 189.554813 138.507129 
L 190.162475 138.476945 
L 190.769969 138.445162 
L 191.377129 138.411685 
L 191.983787 138.376518 
L 192.590444 138.339871 
L 193.1966 138.30175 
L 193.80242 138.26216 
L 194.408073 138.221107 
L 195.013224 138.178598 
L 195.618208 138.134839 
L 196.222857 138.089636 
L 196.827171 138.043297 
L 197.188755 138.014885 
" style="fill:none;stroke:#808080;stroke-dasharray:11.1,4.8;stroke-dashoffset:0;stroke-width:3;"/>
   </g>
   <g id="line2d_37">
    <path clip-path="url(#peebf61a8eb)" d="M 127.289043 68.022242 
L 127.353325 61.722644 
L 127.52424 61.155032 
L 127.857701 60.758486 
L 128.775053 60.277847 
L 130.929826 59.648914 
L 142.321061 56.786254 
L 178.987855 47.025833 
L 191.525111 43.932972 
L 203.077217 41.222319 
L 223.500854 36.749392 
L 242.325486 32.974383 
L 261.299105 29.471485 
L 277.861661 26.662703 
L 294.554789 24.056378 
L 315.027808 21.158433 
L 327.833909 19.532533 
L 341.833571 17.977807 
L 349.887185 17.273509 
L 354.115709 17.084991 
L 355.888475 17.169591 
L 356.405741 17.328933 
L 356.527943 17.489824 
L 356.527943 17.489824 
" style="fill:none;stroke:#008000;stroke-linecap:square;stroke-width:3;"/>
   </g>
   <g id="line2d_38">
    <path clip-path="url(#peebf61a8eb)" d="M 127.289043 159.471481 
L 127.353325 162.008086 
L 127.52424 162.369351 
L 128.291267 163.225217 
L 131.497145 166.110368 
L 137.428629 171.485891 
L 141.706703 175.675213 
L 145.398543 179.632476 
L 148.479875 183.296227 
L 150.945509 186.59287 
L 152.794107 189.371581 
L 154.640362 192.512347 
L 156.479418 196.068295 
L 161.30623 205.940514 
L 162.499625 207.847118 
L 163.690676 209.446769 
L 164.88022 210.718978 
L 166.06809 211.749591 
L 167.846715 212.90397 
L 169.620988 213.72353 
L 171.390406 214.298629 
L 173.1543 214.665903 
L 174.912167 214.756364 
L 177.245891 214.594878 
L 183.596712 213.96333 
L 189.278268 213.646475 
L 195.421346 213.45042 
L 223.500854 213.188181 
L 227.54256 213.17676 
L 229.546505 213.14341 
L 235.003243 213.138342 
L 236.478204 213.147846 
L 238.924588 213.131753 
L 240.871283 213.083906 
L 241.841365 213.087954 
L 243.292556 213.006981 
L 244.738725 213.078721 
L 246.180206 212.981636 
L 247.138571 213.013668 
L 247.617168 212.950394 
L 248.573357 213.009883 
L 249.050447 212.945862 
L 250.478369 213.007486 
L 261.764477 212.849336 
L 263.158919 212.876703 
L 283.757489 212.573687 
L 284.209469 212.652361 
L 285.113429 212.542252 
L 286.466021 212.577417 
L 290.967407 212.507252 
L 291.416039 212.661586 
L 293.659199 212.564987 
L 294.554789 212.57978 
L 296.791252 212.384954 
L 297.685169 212.470063 
L 298.579085 212.406703 
L 303.483905 212.297008 
L 303.929189 212.203921 
L 304.374473 212.294053 
L 304.819756 212.226766 
L 305.710325 212.29824 
L 306.599219 212.186615 
L 307.042829 212.238687 
L 307.488112 212.141004 
L 308.375333 212.246186 
L 309.264227 212.161961 
L 309.707837 212.211903 
L 310.151447 212.108677 
L 311.482277 212.233893 
L 312.369497 212.123122 
L 313.698652 212.148968 
L 314.142263 212.259714 
L 315.027808 212.059276 
L 315.469744 212.124469 
L 315.913355 212.037903 
L 317.240837 212.090448 
L 317.682772 212.00886 
L 318.124708 212.216692 
L 319.010255 212.004347 
L 319.452191 212.177291 
L 320.336063 211.976921 
L 320.776325 212.113206 
L 321.660197 211.931145 
L 322.102132 212.288758 
L 322.98433 212.001055 
L 323.426266 212.279771 
L 324.308465 212.009714 
L 325.190663 211.90646 
L 329.594957 211.78637 
L 333.985859 211.676291 
L 334.424447 211.583688 
L 335.299949 211.603774 
L 336.175451 211.622428 
L 336.612365 211.989595 
L 337.049279 211.698612 
L 337.923107 211.465496 
L 338.795261 211.529993 
L 339.230501 211.672191 
L 340.099307 211.409982 
L 340.534547 211.498686 
L 340.968113 211.391939 
L 343.129247 211.492093 
L 343.989683 211.247986 
L 344.418227 211.707666 
L 344.846771 211.423372 
L 345.27364 211.287717 
L 345.700511 211.352425 
L 346.550903 211.145927 
L 349.477055 211.031117 
L 351.099161 210.894658 
L 352.659329 210.751576 
L 353.035978 210.613602 
L 354.115709 210.600224 
L 354.778613 210.447906 
L 355.088303 210.91052 
L 355.647419 210.349716 
L 355.888475 210.435297 
L 356.273495 210.056969 
L 356.405741 210.454155 
L 356.527943 209.934124 
L 356.527943 209.934124 
" style="fill:none;stroke:#008000;stroke-linecap:square;stroke-width:3;"/>
   </g>
   <g id="line2d_39">
    <path clip-path="url(#peebf61a8eb)" d="M 133.37939 124.505429 
L 133.379055 124.373439 
L 133.36784 123.748073 
L 133.293012 122.351468 
L 133.075392 120.336322 
L 132.684848 118.189336 
L 132.16959 116.260826 
L 131.606289 114.62653 
L 131.02424 113.17624 
L 130.435494 111.81577 
L 129.849092 110.478224 
L 129.27491 109.10348 
L 128.728683 107.627703 
L 128.236527 105.987232 
L 127.838618 104.150724 
L 127.569271 102.186036 
L 127.418611 100.225263 
L 127.344788 98.335153 
L 127.311475 96.516131 
L 127.297581 94.762962 
L 127.292057 93.061092 
L 127.290048 91.403605 
L 127.289378 89.775418 
L 127.289211 88.159822 
L 127.289043 86.531979 
L 127.289043 84.852543 
L 127.289043 83.056418 
L 127.289043 81.001425 
L 127.289043 78.381805 
L 127.289043 74.939467 
L 127.289043 72.035961 
L 127.289043 69.955578 
L 127.289043 68.290677 
" style="fill:none;stroke:#0000ff;stroke-dasharray:11.1,4.8;stroke-dashoffset:0;stroke-width:3;"/>
   </g>
   <g id="line2d_40">
    <path clip-path="url(#peebf61a8eb)" d="M 356.529617 17.50579 
L 356.425829 17.716031 
L 355.925303 18.104224 
L 354.798701 18.710524 
L 351.351935 20.271108 
L 339.493319 25.461215 
L 330.359975 29.806158 
L 324.023885 33.087488 
L 318.136427 36.399714 
L 311.740073 40.360011 
L 307.308995 43.417758 
L 303.867251 46.041074 
L 300.922685 48.500672 
L 297.497681 51.67248 
L 293.111801 56.088706 
L 286.385669 62.845362 
L 280.846403 68.380348 
L 276.830477 72.688411 
L 273.674987 76.320719 
L 270.178 80.678961 
L 267.129647 84.83387 
L 264.149926 89.276696 
L 259.529687 96.293465 
L 257.756921 98.54172 
L 255.833495 100.661677 
L 253.263905 103.126125 
L 250.023041 105.886243 
L 245.541073 109.400517 
L 235.115903 117.197313 
L 230.423514 120.485538 
L 226.904264 122.724064 
L 222.802964 125.060335 
L 218.124301 127.431599 
L 212.297107 130.0979 
L 199.859957 135.661571 
L 198.378969 136.553774 
L 197.569925 137.236005 
L 197.296058 137.615905 
L 197.191433 137.953939 
L 197.322842 137.566939 
L 198.008512 136.830818 
L 199.428065 135.900352 
L 202.101945 134.550114 
L 207.1899 132.305957 
L 207.1899 132.305957 
" style="fill:none;stroke:#0000ff;stroke-dasharray:11.1,4.8;stroke-dashoffset:0;stroke-width:3;"/>
   </g>
   <g id="line2d_41">
    <path clip-path="url(#peebf61a8eb)" d="M 133.37939 124.505429 
L 133.379055 124.635518 
L 133.36784 125.199985 
L 133.293012 126.215543 
L 133.075392 127.270785 
L 132.684848 128.051381 
L 132.16959 128.563965 
L 131.606289 128.924485 
L 131.02424 129.235008 
L 130.435494 129.55523 
L 129.849092 129.930692 
L 129.27491 130.408694 
L 128.728683 131.045947 
L 128.236527 131.914634 
L 127.838618 133.07591 
L 127.569271 134.49669 
L 127.418611 136.053884 
L 127.344788 137.651964 
L 127.311475 139.257045 
L 127.297581 140.859617 
L 127.292057 142.461146 
L 127.290048 144.064122 
L 127.289378 145.672674 
L 127.289211 147.29211 
L 127.289043 148.928973 
L 127.289043 150.586802 
L 127.289043 152.270107 
L 127.289043 153.97409 
L 127.289043 155.657513 
L 127.289043 157.106361 
L 127.289043 158.064644 
L 127.289043 158.770527 
L 127.289043 159.372475 
" style="fill:none;stroke:#0000ff;stroke-dasharray:11.1,4.8;stroke-dashoffset:0;stroke-width:3;"/>
   </g>
   <g id="line2d_42">
    <path clip-path="url(#peebf61a8eb)" d="M 356.529617 210.119727 
L 356.425829 209.638003 
L 356.301953 211.792666 
L 355.925303 211.242399 
L 355.682573 209.790955 
L 355.116761 209.421387 
L 354.798701 208.609003 
L 354.110687 208.594653 
L 353.745755 208.181257 
L 352.980737 207.930008 
L 352.583999 207.635168 
L 351.768761 207.40258 
L 351.351935 207.423469 
L 350.501543 207.143847 
L 350.069651 206.691513 
L 349.194149 206.455267 
L 348.305255 206.696304 
L 347.856623 207.144054 
L 347.406317 206.653212 
L 346.952663 206.50901 
L 346.497335 206.129836 
L 346.040333 205.36293 
L 345.121307 205.0099 
L 343.728539 205.062915 
L 343.263167 204.411574 
L 342.327401 203.996769 
L 341.857007 204.021442 
L 340.914545 203.680362 
L 339.967061 203.164274 
L 338.542487 202.644482 
L 338.065397 202.394888 
L 337.109543 202.15385 
L 332.782253 200.742155 
L 332.298467 200.794817 
L 331.814681 200.127858 
L 331.330895 199.901511 
L 330.845435 199.892759 
L 327.929327 198.651696 
L 326.955059 198.480083 
L 326.466251 198.34658 
L 325.979117 197.878477 
L 325.001501 197.481598 
L 323.533403 197.06079 
L 322.554113 196.47081 
L 314.694682 193.290292 
L 313.708697 192.717564 
L 311.740073 191.914869 
L 310.755761 191.378157 
L 306.326357 189.280888 
L 304.849889 188.510606 
L 302.394131 187.298964 
L 299.943395 185.965432 
L 297.986489 184.93701 
L 296.032931 183.795998 
L 292.626341 181.81446 
L 289.238165 179.673476 
L 287.793502 178.692293 
L 284.602859 176.556268 
L 276.038675 170.426998 
L 269.027963 164.815117 
L 265.259789 161.58195 
L 264.51988 160.495814 
L 262.670111 157.15457 
L 260.358317 153.052364 
L 259.102817 151.187392 
L 257.756921 149.557093 
L 256.327325 148.173021 
L 254.824072 147.024594 
L 252.733247 145.810214 
L 250.572113 144.875375 
L 248.359084 144.149907 
L 245.541073 143.45878 
L 242.103179 142.853979 
L 238.039712 142.362671 
L 232.183892 141.906371 
L 223.388529 141.475596 
L 208.823055 140.754317 
L 203.684712 140.266903 
L 200.385927 139.731289 
L 198.850535 139.32126 
L 197.944733 138.937628 
L 197.296058 138.384544 
L 197.191433 138.075153 
L 197.322842 138.426129 
L 198.008512 138.971913 
L 198.928376 139.347279 
L 201.008488 139.857559 
L 203.77561 140.278165 
L 207.1899 140.625819 
L 207.1899 140.625819 
" style="fill:none;stroke:#0000ff;stroke-dasharray:11.1,4.8;stroke-dashoffset:0;stroke-width:3;"/>
   </g>
   <g id="patch_3">
    <path d="M 80.326313 224.64 
L 80.326313 7.2 
" style="fill:none;stroke:#000000;stroke-linecap:square;stroke-linejoin:miter;stroke-width:0.8;"/>
   </g>
   <g id="patch_4">
    <path d="M 415.126313 224.64 
L 415.126313 7.2 
" style="fill:none;stroke:#000000;stroke-linecap:square;stroke-linejoin:miter;stroke-width:0.8;"/>
   </g>
   <g id="patch_5">
    <path d="M 80.326313 224.64 
L 415.126313 224.64 
" style="fill:none;stroke:#000000;stroke-linecap:square;stroke-linejoin:miter;stroke-width:0.8;"/>
   </g>
   <g id="patch_6">
    <path d="M 80.326313 7.2 
L 415.126313 7.2 
" style="fill:none;stroke:#000000;stroke-linecap:square;stroke-linejoin:miter;stroke-width:0.8;"/>
   </g>
  </g>
 </g>
 <defs>
  <clipPath id="peebf61a8eb">
   <rect height="217.44" width="334.8" x="80.326313" y="7.2"/>
  </clipPath>
 </defs>
</svg>
