<?xml version="1.0" encoding="utf-8" standalone="no"?>
<!DOCTYPE svg PUBLIC "-//W3C//DTD SVG 1.1//EN"
  "http://www.w3.org/Graphics/SVG/1.1/DTD/svg11.dtd">
<!-- Created with matplotlib (https://matplotlib.org/) -->
<svg height="323.627562pt" version="1.1" viewBox="0 0 444.555313 323.627562" width="444.555313pt" xmlns="http://www.w3.org/2000/svg" xmlns:xlink="http://www.w3.org/1999/xlink">
 <metadata>
  <rdf:RDF xmlns:cc="http://creativecommons.org/ns#" xmlns:dc="http://purl.org/dc/elements/1.1/" xmlns:rdf="http://www.w3.org/1999/02/22-rdf-syntax-ns#">
   <cc:Work>
    <dc:type rdf:resource="http://purl.org/dc/dcmitype/StillImage"/>
    <dc:date>2021-03-17T13:24:46.599837</dc:date>
    <dc:format>image/svg+xml</dc:format>
    <dc:creator>
     <cc:Agent>
      <dc:title>Matplotlib v3.3.3, https://matplotlib.org/</dc:title>
     </cc:Agent>
    </dc:creator>
   </cc:Work>
  </rdf:RDF>
 </metadata>
 <defs>
  <style type="text/css">*{stroke-linecap:butt;stroke-linejoin:round;}</style>
 </defs>
 <g id="figure_1">
  <g id="patch_1">
   <path d="M 0 323.627562 
L 444.555313 323.627562 
L 444.555313 0 
L 0 0 
z
" style="fill:#ffffff;"/>
  </g>
  <g id="axes_1">
   <g id="patch_2">
    <path d="M 64.649375 278.328812 
L 421.769375 278.328812 
L 421.769375 12.216812 
L 64.649375 12.216812 
z
" style="fill:#ffffff;"/>
   </g>
   <g id="matplotlib.axis_1">
    <g id="xtick_1">
     <g id="line2d_1">
      <defs>
       <path d="M 0 0 
L 0 3.5 
" id="mb64c575313" style="stroke:#000000;stroke-width:0.8;"/>
      </defs>
      <g>
       <use style="stroke:#000000;stroke-width:0.8;" x="64.649375" xlink:href="#mb64c575313" y="278.328812"/>
      </g>
     </g>
     <g id="text_1">
      <!-- 0.00 -->
      <g transform="translate(49.063438 295.966625)scale(0.14 -0.14)">
       <defs>
        <path d="M 31.78125 66.40625 
Q 24.171875 66.40625 20.328125 58.90625 
Q 16.5 51.421875 16.5 36.375 
Q 16.5 21.390625 20.328125 13.890625 
Q 24.171875 6.390625 31.78125 6.390625 
Q 39.453125 6.390625 43.28125 13.890625 
Q 47.125 21.390625 47.125 36.375 
Q 47.125 51.421875 43.28125 58.90625 
Q 39.453125 66.40625 31.78125 66.40625 
z
M 31.78125 74.21875 
Q 44.046875 74.21875 50.515625 64.515625 
Q 56.984375 54.828125 56.984375 36.375 
Q 56.984375 17.96875 50.515625 8.265625 
Q 44.046875 -1.421875 31.78125 -1.421875 
Q 19.53125 -1.421875 13.0625 8.265625 
Q 6.59375 17.96875 6.59375 36.375 
Q 6.59375 54.828125 13.0625 64.515625 
Q 19.53125 74.21875 31.78125 74.21875 
z
" id="DejaVuSans-48"/>
        <path d="M 10.6875 12.40625 
L 21 12.40625 
L 21 0 
L 10.6875 0 
z
" id="DejaVuSans-46"/>
       </defs>
       <use xlink:href="#DejaVuSans-48"/>
       <use x="63.623047" xlink:href="#DejaVuSans-46"/>
       <use x="95.410156" xlink:href="#DejaVuSans-48"/>
       <use x="159.033203" xlink:href="#DejaVuSans-48"/>
      </g>
     </g>
    </g>
    <g id="xtick_2">
     <g id="line2d_2">
      <g>
       <use style="stroke:#000000;stroke-width:0.8;" x="109.289375" xlink:href="#mb64c575313" y="278.328812"/>
      </g>
     </g>
     <g id="text_2">
      <!-- 0.25 -->
      <g transform="translate(93.703438 295.966625)scale(0.14 -0.14)">
       <defs>
        <path d="M 19.1875 8.296875 
L 53.609375 8.296875 
L 53.609375 0 
L 7.328125 0 
L 7.328125 8.296875 
Q 12.9375 14.109375 22.625 23.890625 
Q 32.328125 33.6875 34.8125 36.53125 
Q 39.546875 41.84375 41.421875 45.53125 
Q 43.3125 49.21875 43.3125 52.78125 
Q 43.3125 58.59375 39.234375 62.25 
Q 35.15625 65.921875 28.609375 65.921875 
Q 23.96875 65.921875 18.8125 64.3125 
Q 13.671875 62.703125 7.8125 59.421875 
L 7.8125 69.390625 
Q 13.765625 71.78125 18.9375 73 
Q 24.125 74.21875 28.421875 74.21875 
Q 39.75 74.21875 46.484375 68.546875 
Q 53.21875 62.890625 53.21875 53.421875 
Q 53.21875 48.921875 51.53125 44.890625 
Q 49.859375 40.875 45.40625 35.40625 
Q 44.1875 33.984375 37.640625 27.21875 
Q 31.109375 20.453125 19.1875 8.296875 
z
" id="DejaVuSans-50"/>
        <path d="M 10.796875 72.90625 
L 49.515625 72.90625 
L 49.515625 64.59375 
L 19.828125 64.59375 
L 19.828125 46.734375 
Q 21.96875 47.46875 24.109375 47.828125 
Q 26.265625 48.1875 28.421875 48.1875 
Q 40.625 48.1875 47.75 41.5 
Q 54.890625 34.8125 54.890625 23.390625 
Q 54.890625 11.625 47.5625 5.09375 
Q 40.234375 -1.421875 26.90625 -1.421875 
Q 22.3125 -1.421875 17.546875 -0.640625 
Q 12.796875 0.140625 7.71875 1.703125 
L 7.71875 11.625 
Q 12.109375 9.234375 16.796875 8.0625 
Q 21.484375 6.890625 26.703125 6.890625 
Q 35.15625 6.890625 40.078125 11.328125 
Q 45.015625 15.765625 45.015625 23.390625 
Q 45.015625 31 40.078125 35.4375 
Q 35.15625 39.890625 26.703125 39.890625 
Q 22.75 39.890625 18.8125 39.015625 
Q 14.890625 38.140625 10.796875 36.28125 
z
" id="DejaVuSans-53"/>
       </defs>
       <use xlink:href="#DejaVuSans-48"/>
       <use x="63.623047" xlink:href="#DejaVuSans-46"/>
       <use x="95.410156" xlink:href="#DejaVuSans-50"/>
       <use x="159.033203" xlink:href="#DejaVuSans-53"/>
      </g>
     </g>
    </g>
    <g id="xtick_3">
     <g id="line2d_3">
      <g>
       <use style="stroke:#000000;stroke-width:0.8;" x="153.929375" xlink:href="#mb64c575313" y="278.328812"/>
      </g>
     </g>
     <g id="text_3">
      <!-- 0.50 -->
      <g transform="translate(138.343438 295.966625)scale(0.14 -0.14)">
       <use xlink:href="#DejaVuSans-48"/>
       <use x="63.623047" xlink:href="#DejaVuSans-46"/>
       <use x="95.410156" xlink:href="#DejaVuSans-53"/>
       <use x="159.033203" xlink:href="#DejaVuSans-48"/>
      </g>
     </g>
    </g>
    <g id="xtick_4">
     <g id="line2d_4">
      <g>
       <use style="stroke:#000000;stroke-width:0.8;" x="198.569375" xlink:href="#mb64c575313" y="278.328812"/>
      </g>
     </g>
     <g id="text_4">
      <!-- 0.75 -->
      <g transform="translate(182.983438 295.966625)scale(0.14 -0.14)">
       <defs>
        <path d="M 8.203125 72.90625 
L 55.078125 72.90625 
L 55.078125 68.703125 
L 28.609375 0 
L 18.3125 0 
L 43.21875 64.59375 
L 8.203125 64.59375 
z
" id="DejaVuSans-55"/>
       </defs>
       <use xlink:href="#DejaVuSans-48"/>
       <use x="63.623047" xlink:href="#DejaVuSans-46"/>
       <use x="95.410156" xlink:href="#DejaVuSans-55"/>
       <use x="159.033203" xlink:href="#DejaVuSans-53"/>
      </g>
     </g>
    </g>
    <g id="xtick_5">
     <g id="line2d_5">
      <g>
       <use style="stroke:#000000;stroke-width:0.8;" x="243.209375" xlink:href="#mb64c575313" y="278.328812"/>
      </g>
     </g>
     <g id="text_5">
      <!-- 1.00 -->
      <g transform="translate(227.623438 295.966625)scale(0.14 -0.14)">
       <defs>
        <path d="M 12.40625 8.296875 
L 28.515625 8.296875 
L 28.515625 63.921875 
L 10.984375 60.40625 
L 10.984375 69.390625 
L 28.421875 72.90625 
L 38.28125 72.90625 
L 38.28125 8.296875 
L 54.390625 8.296875 
L 54.390625 0 
L 12.40625 0 
z
" id="DejaVuSans-49"/>
       </defs>
       <use xlink:href="#DejaVuSans-49"/>
       <use x="63.623047" xlink:href="#DejaVuSans-46"/>
       <use x="95.410156" xlink:href="#DejaVuSans-48"/>
       <use x="159.033203" xlink:href="#DejaVuSans-48"/>
      </g>
     </g>
    </g>
    <g id="xtick_6">
     <g id="line2d_6">
      <g>
       <use style="stroke:#000000;stroke-width:0.8;" x="287.849375" xlink:href="#mb64c575313" y="278.328812"/>
      </g>
     </g>
     <g id="text_6">
      <!-- 1.25 -->
      <g transform="translate(272.263438 295.966625)scale(0.14 -0.14)">
       <use xlink:href="#DejaVuSans-49"/>
       <use x="63.623047" xlink:href="#DejaVuSans-46"/>
       <use x="95.410156" xlink:href="#DejaVuSans-50"/>
       <use x="159.033203" xlink:href="#DejaVuSans-53"/>
      </g>
     </g>
    </g>
    <g id="xtick_7">
     <g id="line2d_7">
      <g>
       <use style="stroke:#000000;stroke-width:0.8;" x="332.489375" xlink:href="#mb64c575313" y="278.328812"/>
      </g>
     </g>
     <g id="text_7">
      <!-- 1.50 -->
      <g transform="translate(316.903438 295.966625)scale(0.14 -0.14)">
       <use xlink:href="#DejaVuSans-49"/>
       <use x="63.623047" xlink:href="#DejaVuSans-46"/>
       <use x="95.410156" xlink:href="#DejaVuSans-53"/>
       <use x="159.033203" xlink:href="#DejaVuSans-48"/>
      </g>
     </g>
    </g>
    <g id="xtick_8">
     <g id="line2d_8">
      <g>
       <use style="stroke:#000000;stroke-width:0.8;" x="377.129375" xlink:href="#mb64c575313" y="278.328812"/>
      </g>
     </g>
     <g id="text_8">
      <!-- 1.75 -->
      <g transform="translate(361.543438 295.966625)scale(0.14 -0.14)">
       <use xlink:href="#DejaVuSans-49"/>
       <use x="63.623047" xlink:href="#DejaVuSans-46"/>
       <use x="95.410156" xlink:href="#DejaVuSans-55"/>
       <use x="159.033203" xlink:href="#DejaVuSans-53"/>
      </g>
     </g>
    </g>
    <g id="xtick_9">
     <g id="line2d_9">
      <g>
       <use style="stroke:#000000;stroke-width:0.8;" x="421.769375" xlink:href="#mb64c575313" y="278.328812"/>
      </g>
     </g>
     <g id="text_9">
      <!-- 2.00 -->
      <g transform="translate(406.183438 295.966625)scale(0.14 -0.14)">
       <use xlink:href="#DejaVuSans-50"/>
       <use x="63.623047" xlink:href="#DejaVuSans-46"/>
       <use x="95.410156" xlink:href="#DejaVuSans-48"/>
       <use x="159.033203" xlink:href="#DejaVuSans-48"/>
      </g>
     </g>
    </g>
    <g id="text_10">
     <!-- Relative Cytoplasmic Density -->
     <g transform="translate(140.922969 313.516)scale(0.14 -0.14)">
      <defs>
       <path d="M 44.390625 34.1875 
Q 47.5625 33.109375 50.5625 29.59375 
Q 53.5625 26.078125 56.59375 19.921875 
L 66.609375 0 
L 56 0 
L 46.6875 18.703125 
Q 43.0625 26.03125 39.671875 28.421875 
Q 36.28125 30.8125 30.421875 30.8125 
L 19.671875 30.8125 
L 19.671875 0 
L 9.8125 0 
L 9.8125 72.90625 
L 32.078125 72.90625 
Q 44.578125 72.90625 50.734375 67.671875 
Q 56.890625 62.453125 56.890625 51.90625 
Q 56.890625 45.015625 53.6875 40.46875 
Q 50.484375 35.9375 44.390625 34.1875 
z
M 19.671875 64.796875 
L 19.671875 38.921875 
L 32.078125 38.921875 
Q 39.203125 38.921875 42.84375 42.21875 
Q 46.484375 45.515625 46.484375 51.90625 
Q 46.484375 58.296875 42.84375 61.546875 
Q 39.203125 64.796875 32.078125 64.796875 
z
" id="DejaVuSans-82"/>
       <path d="M 56.203125 29.59375 
L 56.203125 25.203125 
L 14.890625 25.203125 
Q 15.484375 15.921875 20.484375 11.0625 
Q 25.484375 6.203125 34.421875 6.203125 
Q 39.59375 6.203125 44.453125 7.46875 
Q 49.3125 8.734375 54.109375 11.28125 
L 54.109375 2.78125 
Q 49.265625 0.734375 44.1875 -0.34375 
Q 39.109375 -1.421875 33.890625 -1.421875 
Q 20.796875 -1.421875 13.15625 6.1875 
Q 5.515625 13.8125 5.515625 26.8125 
Q 5.515625 40.234375 12.765625 48.109375 
Q 20.015625 56 32.328125 56 
Q 43.359375 56 49.78125 48.890625 
Q 56.203125 41.796875 56.203125 29.59375 
z
M 47.21875 32.234375 
Q 47.125 39.59375 43.09375 43.984375 
Q 39.0625 48.390625 32.421875 48.390625 
Q 24.90625 48.390625 20.390625 44.140625 
Q 15.875 39.890625 15.1875 32.171875 
z
" id="DejaVuSans-101"/>
       <path d="M 9.421875 75.984375 
L 18.40625 75.984375 
L 18.40625 0 
L 9.421875 0 
z
" id="DejaVuSans-108"/>
       <path d="M 34.28125 27.484375 
Q 23.390625 27.484375 19.1875 25 
Q 14.984375 22.515625 14.984375 16.5 
Q 14.984375 11.71875 18.140625 8.90625 
Q 21.296875 6.109375 26.703125 6.109375 
Q 34.1875 6.109375 38.703125 11.40625 
Q 43.21875 16.703125 43.21875 25.484375 
L 43.21875 27.484375 
z
M 52.203125 31.203125 
L 52.203125 0 
L 43.21875 0 
L 43.21875 8.296875 
Q 40.140625 3.328125 35.546875 0.953125 
Q 30.953125 -1.421875 24.3125 -1.421875 
Q 15.921875 -1.421875 10.953125 3.296875 
Q 6 8.015625 6 15.921875 
Q 6 25.140625 12.171875 29.828125 
Q 18.359375 34.515625 30.609375 34.515625 
L 43.21875 34.515625 
L 43.21875 35.40625 
Q 43.21875 41.609375 39.140625 45 
Q 35.0625 48.390625 27.6875 48.390625 
Q 23 48.390625 18.546875 47.265625 
Q 14.109375 46.140625 10.015625 43.890625 
L 10.015625 52.203125 
Q 14.9375 54.109375 19.578125 55.046875 
Q 24.21875 56 28.609375 56 
Q 40.484375 56 46.34375 49.84375 
Q 52.203125 43.703125 52.203125 31.203125 
z
" id="DejaVuSans-97"/>
       <path d="M 18.3125 70.21875 
L 18.3125 54.6875 
L 36.8125 54.6875 
L 36.8125 47.703125 
L 18.3125 47.703125 
L 18.3125 18.015625 
Q 18.3125 11.328125 20.140625 9.421875 
Q 21.96875 7.515625 27.59375 7.515625 
L 36.8125 7.515625 
L 36.8125 0 
L 27.59375 0 
Q 17.1875 0 13.234375 3.875 
Q 9.28125 7.765625 9.28125 18.015625 
L 9.28125 47.703125 
L 2.6875 47.703125 
L 2.6875 54.6875 
L 9.28125 54.6875 
L 9.28125 70.21875 
z
" id="DejaVuSans-116"/>
       <path d="M 9.421875 54.6875 
L 18.40625 54.6875 
L 18.40625 0 
L 9.421875 0 
z
M 9.421875 75.984375 
L 18.40625 75.984375 
L 18.40625 64.59375 
L 9.421875 64.59375 
z
" id="DejaVuSans-105"/>
       <path d="M 2.984375 54.6875 
L 12.5 54.6875 
L 29.59375 8.796875 
L 46.6875 54.6875 
L 56.203125 54.6875 
L 35.6875 0 
L 23.484375 0 
z
" id="DejaVuSans-118"/>
       <path id="DejaVuSans-32"/>
       <path d="M 64.40625 67.28125 
L 64.40625 56.890625 
Q 59.421875 61.53125 53.78125 63.8125 
Q 48.140625 66.109375 41.796875 66.109375 
Q 29.296875 66.109375 22.65625 58.46875 
Q 16.015625 50.828125 16.015625 36.375 
Q 16.015625 21.96875 22.65625 14.328125 
Q 29.296875 6.6875 41.796875 6.6875 
Q 48.140625 6.6875 53.78125 8.984375 
Q 59.421875 11.28125 64.40625 15.921875 
L 64.40625 5.609375 
Q 59.234375 2.09375 53.4375 0.328125 
Q 47.65625 -1.421875 41.21875 -1.421875 
Q 24.65625 -1.421875 15.125 8.703125 
Q 5.609375 18.84375 5.609375 36.375 
Q 5.609375 53.953125 15.125 64.078125 
Q 24.65625 74.21875 41.21875 74.21875 
Q 47.75 74.21875 53.53125 72.484375 
Q 59.328125 70.75 64.40625 67.28125 
z
" id="DejaVuSans-67"/>
       <path d="M 32.171875 -5.078125 
Q 28.375 -14.84375 24.75 -17.8125 
Q 21.140625 -20.796875 15.09375 -20.796875 
L 7.90625 -20.796875 
L 7.90625 -13.28125 
L 13.1875 -13.28125 
Q 16.890625 -13.28125 18.9375 -11.515625 
Q 21 -9.765625 23.484375 -3.21875 
L 25.09375 0.875 
L 2.984375 54.6875 
L 12.5 54.6875 
L 29.59375 11.921875 
L 46.6875 54.6875 
L 56.203125 54.6875 
z
" id="DejaVuSans-121"/>
       <path d="M 30.609375 48.390625 
Q 23.390625 48.390625 19.1875 42.75 
Q 14.984375 37.109375 14.984375 27.296875 
Q 14.984375 17.484375 19.15625 11.84375 
Q 23.34375 6.203125 30.609375 6.203125 
Q 37.796875 6.203125 41.984375 11.859375 
Q 46.1875 17.53125 46.1875 27.296875 
Q 46.1875 37.015625 41.984375 42.703125 
Q 37.796875 48.390625 30.609375 48.390625 
z
M 30.609375 56 
Q 42.328125 56 49.015625 48.375 
Q 55.71875 40.765625 55.71875 27.296875 
Q 55.71875 13.875 49.015625 6.21875 
Q 42.328125 -1.421875 30.609375 -1.421875 
Q 18.84375 -1.421875 12.171875 6.21875 
Q 5.515625 13.875 5.515625 27.296875 
Q 5.515625 40.765625 12.171875 48.375 
Q 18.84375 56 30.609375 56 
z
" id="DejaVuSans-111"/>
       <path d="M 18.109375 8.203125 
L 18.109375 -20.796875 
L 9.078125 -20.796875 
L 9.078125 54.6875 
L 18.109375 54.6875 
L 18.109375 46.390625 
Q 20.953125 51.265625 25.265625 53.625 
Q 29.59375 56 35.59375 56 
Q 45.5625 56 51.78125 48.09375 
Q 58.015625 40.1875 58.015625 27.296875 
Q 58.015625 14.40625 51.78125 6.484375 
Q 45.5625 -1.421875 35.59375 -1.421875 
Q 29.59375 -1.421875 25.265625 0.953125 
Q 20.953125 3.328125 18.109375 8.203125 
z
M 48.6875 27.296875 
Q 48.6875 37.203125 44.609375 42.84375 
Q 40.53125 48.484375 33.40625 48.484375 
Q 26.265625 48.484375 22.1875 42.84375 
Q 18.109375 37.203125 18.109375 27.296875 
Q 18.109375 17.390625 22.1875 11.75 
Q 26.265625 6.109375 33.40625 6.109375 
Q 40.53125 6.109375 44.609375 11.75 
Q 48.6875 17.390625 48.6875 27.296875 
z
" id="DejaVuSans-112"/>
       <path d="M 44.28125 53.078125 
L 44.28125 44.578125 
Q 40.484375 46.53125 36.375 47.5 
Q 32.28125 48.484375 27.875 48.484375 
Q 21.1875 48.484375 17.84375 46.4375 
Q 14.5 44.390625 14.5 40.28125 
Q 14.5 37.15625 16.890625 35.375 
Q 19.28125 33.59375 26.515625 31.984375 
L 29.59375 31.296875 
Q 39.15625 29.25 43.1875 25.515625 
Q 47.21875 21.78125 47.21875 15.09375 
Q 47.21875 7.46875 41.1875 3.015625 
Q 35.15625 -1.421875 24.609375 -1.421875 
Q 20.21875 -1.421875 15.453125 -0.5625 
Q 10.6875 0.296875 5.421875 2 
L 5.421875 11.28125 
Q 10.40625 8.6875 15.234375 7.390625 
Q 20.0625 6.109375 24.8125 6.109375 
Q 31.15625 6.109375 34.5625 8.28125 
Q 37.984375 10.453125 37.984375 14.40625 
Q 37.984375 18.0625 35.515625 20.015625 
Q 33.0625 21.96875 24.703125 23.78125 
L 21.578125 24.515625 
Q 13.234375 26.265625 9.515625 29.90625 
Q 5.8125 33.546875 5.8125 39.890625 
Q 5.8125 47.609375 11.28125 51.796875 
Q 16.75 56 26.8125 56 
Q 31.78125 56 36.171875 55.265625 
Q 40.578125 54.546875 44.28125 53.078125 
z
" id="DejaVuSans-115"/>
       <path d="M 52 44.1875 
Q 55.375 50.25 60.0625 53.125 
Q 64.75 56 71.09375 56 
Q 79.640625 56 84.28125 50.015625 
Q 88.921875 44.046875 88.921875 33.015625 
L 88.921875 0 
L 79.890625 0 
L 79.890625 32.71875 
Q 79.890625 40.578125 77.09375 44.375 
Q 74.3125 48.1875 68.609375 48.1875 
Q 61.625 48.1875 57.5625 43.546875 
Q 53.515625 38.921875 53.515625 30.90625 
L 53.515625 0 
L 44.484375 0 
L 44.484375 32.71875 
Q 44.484375 40.625 41.703125 44.40625 
Q 38.921875 48.1875 33.109375 48.1875 
Q 26.21875 48.1875 22.15625 43.53125 
Q 18.109375 38.875 18.109375 30.90625 
L 18.109375 0 
L 9.078125 0 
L 9.078125 54.6875 
L 18.109375 54.6875 
L 18.109375 46.1875 
Q 21.1875 51.21875 25.484375 53.609375 
Q 29.78125 56 35.6875 56 
Q 41.65625 56 45.828125 52.96875 
Q 50 49.953125 52 44.1875 
z
" id="DejaVuSans-109"/>
       <path d="M 48.78125 52.59375 
L 48.78125 44.1875 
Q 44.96875 46.296875 41.140625 47.34375 
Q 37.3125 48.390625 33.40625 48.390625 
Q 24.65625 48.390625 19.8125 42.84375 
Q 14.984375 37.3125 14.984375 27.296875 
Q 14.984375 17.28125 19.8125 11.734375 
Q 24.65625 6.203125 33.40625 6.203125 
Q 37.3125 6.203125 41.140625 7.25 
Q 44.96875 8.296875 48.78125 10.40625 
L 48.78125 2.09375 
Q 45.015625 0.34375 40.984375 -0.53125 
Q 36.96875 -1.421875 32.421875 -1.421875 
Q 20.0625 -1.421875 12.78125 6.34375 
Q 5.515625 14.109375 5.515625 27.296875 
Q 5.515625 40.671875 12.859375 48.328125 
Q 20.21875 56 33.015625 56 
Q 37.15625 56 41.109375 55.140625 
Q 45.0625 54.296875 48.78125 52.59375 
z
" id="DejaVuSans-99"/>
       <path d="M 19.671875 64.796875 
L 19.671875 8.109375 
L 31.59375 8.109375 
Q 46.6875 8.109375 53.6875 14.9375 
Q 60.6875 21.78125 60.6875 36.53125 
Q 60.6875 51.171875 53.6875 57.984375 
Q 46.6875 64.796875 31.59375 64.796875 
z
M 9.8125 72.90625 
L 30.078125 72.90625 
Q 51.265625 72.90625 61.171875 64.09375 
Q 71.09375 55.28125 71.09375 36.53125 
Q 71.09375 17.671875 61.125 8.828125 
Q 51.171875 0 30.078125 0 
L 9.8125 0 
z
" id="DejaVuSans-68"/>
       <path d="M 54.890625 33.015625 
L 54.890625 0 
L 45.90625 0 
L 45.90625 32.71875 
Q 45.90625 40.484375 42.875 44.328125 
Q 39.84375 48.1875 33.796875 48.1875 
Q 26.515625 48.1875 22.3125 43.546875 
Q 18.109375 38.921875 18.109375 30.90625 
L 18.109375 0 
L 9.078125 0 
L 9.078125 54.6875 
L 18.109375 54.6875 
L 18.109375 46.1875 
Q 21.34375 51.125 25.703125 53.5625 
Q 30.078125 56 35.796875 56 
Q 45.21875 56 50.046875 50.171875 
Q 54.890625 44.34375 54.890625 33.015625 
z
" id="DejaVuSans-110"/>
      </defs>
      <use xlink:href="#DejaVuSans-82"/>
      <use x="64.982422" xlink:href="#DejaVuSans-101"/>
      <use x="126.505859" xlink:href="#DejaVuSans-108"/>
      <use x="154.289062" xlink:href="#DejaVuSans-97"/>
      <use x="215.568359" xlink:href="#DejaVuSans-116"/>
      <use x="254.777344" xlink:href="#DejaVuSans-105"/>
      <use x="282.560547" xlink:href="#DejaVuSans-118"/>
      <use x="341.740234" xlink:href="#DejaVuSans-101"/>
      <use x="403.263672" xlink:href="#DejaVuSans-32"/>
      <use x="435.050781" xlink:href="#DejaVuSans-67"/>
      <use x="504.875" xlink:href="#DejaVuSans-121"/>
      <use x="564.054688" xlink:href="#DejaVuSans-116"/>
      <use x="603.263672" xlink:href="#DejaVuSans-111"/>
      <use x="664.445312" xlink:href="#DejaVuSans-112"/>
      <use x="727.921875" xlink:href="#DejaVuSans-108"/>
      <use x="755.705078" xlink:href="#DejaVuSans-97"/>
      <use x="816.984375" xlink:href="#DejaVuSans-115"/>
      <use x="869.083984" xlink:href="#DejaVuSans-109"/>
      <use x="966.496094" xlink:href="#DejaVuSans-105"/>
      <use x="994.279297" xlink:href="#DejaVuSans-99"/>
      <use x="1049.259766" xlink:href="#DejaVuSans-32"/>
      <use x="1081.046875" xlink:href="#DejaVuSans-68"/>
      <use x="1158.048828" xlink:href="#DejaVuSans-101"/>
      <use x="1219.572266" xlink:href="#DejaVuSans-110"/>
      <use x="1282.951172" xlink:href="#DejaVuSans-115"/>
      <use x="1335.050781" xlink:href="#DejaVuSans-105"/>
      <use x="1362.833984" xlink:href="#DejaVuSans-116"/>
      <use x="1402.042969" xlink:href="#DejaVuSans-121"/>
     </g>
    </g>
   </g>
   <g id="matplotlib.axis_2">
    <g id="ytick_1">
     <g id="line2d_10">
      <defs>
       <path d="M 0 0 
L -3.5 0 
" id="m2e07fc49b0" style="stroke:#000000;stroke-width:0.8;"/>
      </defs>
      <g>
       <use style="stroke:#000000;stroke-width:0.8;" x="64.649375" xlink:href="#m2e07fc49b0" y="211.562315"/>
      </g>
     </g>
     <g id="text_11">
      <!-- $\mathdefault{10^{-2}}$ -->
      <g transform="translate(24.749375 216.881221)scale(0.14 -0.14)">
       <defs>
        <path d="M 10.59375 35.5 
L 73.1875 35.5 
L 73.1875 27.203125 
L 10.59375 27.203125 
z
" id="DejaVuSans-8722"/>
       </defs>
       <use transform="translate(0 0.765625)" xlink:href="#DejaVuSans-49"/>
       <use transform="translate(63.623047 0.765625)" xlink:href="#DejaVuSans-48"/>
       <use transform="translate(128.203125 39.046875)scale(0.7)" xlink:href="#DejaVuSans-8722"/>
       <use transform="translate(186.855469 39.046875)scale(0.7)" xlink:href="#DejaVuSans-50"/>
      </g>
     </g>
    </g>
    <g id="ytick_2">
     <g id="line2d_11">
      <g>
       <use style="stroke:#000000;stroke-width:0.8;" x="64.649375" xlink:href="#m2e07fc49b0" y="128.08127"/>
      </g>
     </g>
     <g id="text_12">
      <!-- $\mathdefault{10^{-1}}$ -->
      <g transform="translate(24.749375 133.400176)scale(0.14 -0.14)">
       <use transform="translate(0 0.684375)" xlink:href="#DejaVuSans-49"/>
       <use transform="translate(63.623047 0.684375)" xlink:href="#DejaVuSans-48"/>
       <use transform="translate(128.203125 38.965625)scale(0.7)" xlink:href="#DejaVuSans-8722"/>
       <use transform="translate(186.855469 38.965625)scale(0.7)" xlink:href="#DejaVuSans-49"/>
      </g>
     </g>
    </g>
    <g id="ytick_3">
     <g id="line2d_12">
      <g>
       <use style="stroke:#000000;stroke-width:0.8;" x="64.649375" xlink:href="#m2e07fc49b0" y="44.600225"/>
      </g>
     </g>
     <g id="text_13">
      <!-- $\mathdefault{10^{0}}$ -->
      <g transform="translate(33.009375 49.919132)scale(0.14 -0.14)">
       <use transform="translate(0 0.765625)" xlink:href="#DejaVuSans-49"/>
       <use transform="translate(63.623047 0.765625)" xlink:href="#DejaVuSans-48"/>
       <use transform="translate(128.203125 39.046875)scale(0.7)" xlink:href="#DejaVuSans-48"/>
      </g>
     </g>
    </g>
    <g id="ytick_4">
     <g id="line2d_13">
      <defs>
       <path d="M 0 0 
L -2 0 
" id="m6a7e29ca0a" style="stroke:#000000;stroke-width:0.6;"/>
      </defs>
      <g>
       <use style="stroke:#000000;stroke-width:0.6;" x="64.649375" xlink:href="#m6a7e29ca0a" y="269.913061"/>
      </g>
     </g>
    </g>
    <g id="ytick_5">
     <g id="line2d_14">
      <g>
       <use style="stroke:#000000;stroke-width:0.6;" x="64.649375" xlink:href="#m6a7e29ca0a" y="255.212779"/>
      </g>
     </g>
    </g>
    <g id="ytick_6">
     <g id="line2d_15">
      <g>
       <use style="stroke:#000000;stroke-width:0.6;" x="64.649375" xlink:href="#m6a7e29ca0a" y="244.782763"/>
      </g>
     </g>
    </g>
    <g id="ytick_7">
     <g id="line2d_16">
      <g>
       <use style="stroke:#000000;stroke-width:0.6;" x="64.649375" xlink:href="#m6a7e29ca0a" y="236.692614"/>
      </g>
     </g>
    </g>
    <g id="ytick_8">
     <g id="line2d_17">
      <g>
       <use style="stroke:#000000;stroke-width:0.6;" x="64.649375" xlink:href="#m6a7e29ca0a" y="230.082481"/>
      </g>
     </g>
    </g>
    <g id="ytick_9">
     <g id="line2d_18">
      <g>
       <use style="stroke:#000000;stroke-width:0.6;" x="64.649375" xlink:href="#m6a7e29ca0a" y="224.493693"/>
      </g>
     </g>
    </g>
    <g id="ytick_10">
     <g id="line2d_19">
      <g>
       <use style="stroke:#000000;stroke-width:0.6;" x="64.649375" xlink:href="#m6a7e29ca0a" y="219.652464"/>
      </g>
     </g>
    </g>
    <g id="ytick_11">
     <g id="line2d_20">
      <g>
       <use style="stroke:#000000;stroke-width:0.6;" x="64.649375" xlink:href="#m6a7e29ca0a" y="215.382198"/>
      </g>
     </g>
    </g>
    <g id="ytick_12">
     <g id="line2d_21">
      <g>
       <use style="stroke:#000000;stroke-width:0.6;" x="64.649375" xlink:href="#m6a7e29ca0a" y="186.432017"/>
      </g>
     </g>
    </g>
    <g id="ytick_13">
     <g id="line2d_22">
      <g>
       <use style="stroke:#000000;stroke-width:0.6;" x="64.649375" xlink:href="#m6a7e29ca0a" y="171.731734"/>
      </g>
     </g>
    </g>
    <g id="ytick_14">
     <g id="line2d_23">
      <g>
       <use style="stroke:#000000;stroke-width:0.6;" x="64.649375" xlink:href="#m6a7e29ca0a" y="161.301718"/>
      </g>
     </g>
    </g>
    <g id="ytick_15">
     <g id="line2d_24">
      <g>
       <use style="stroke:#000000;stroke-width:0.6;" x="64.649375" xlink:href="#m6a7e29ca0a" y="153.211569"/>
      </g>
     </g>
    </g>
    <g id="ytick_16">
     <g id="line2d_25">
      <g>
       <use style="stroke:#000000;stroke-width:0.6;" x="64.649375" xlink:href="#m6a7e29ca0a" y="146.601436"/>
      </g>
     </g>
    </g>
    <g id="ytick_17">
     <g id="line2d_26">
      <g>
       <use style="stroke:#000000;stroke-width:0.6;" x="64.649375" xlink:href="#m6a7e29ca0a" y="141.012648"/>
      </g>
     </g>
    </g>
    <g id="ytick_18">
     <g id="line2d_27">
      <g>
       <use style="stroke:#000000;stroke-width:0.6;" x="64.649375" xlink:href="#m6a7e29ca0a" y="136.171419"/>
      </g>
     </g>
    </g>
    <g id="ytick_19">
     <g id="line2d_28">
      <g>
       <use style="stroke:#000000;stroke-width:0.6;" x="64.649375" xlink:href="#m6a7e29ca0a" y="131.901153"/>
      </g>
     </g>
    </g>
    <g id="ytick_20">
     <g id="line2d_29">
      <g>
       <use style="stroke:#000000;stroke-width:0.6;" x="64.649375" xlink:href="#m6a7e29ca0a" y="102.950972"/>
      </g>
     </g>
    </g>
    <g id="ytick_21">
     <g id="line2d_30">
      <g>
       <use style="stroke:#000000;stroke-width:0.6;" x="64.649375" xlink:href="#m6a7e29ca0a" y="88.250689"/>
      </g>
     </g>
    </g>
    <g id="ytick_22">
     <g id="line2d_31">
      <g>
       <use style="stroke:#000000;stroke-width:0.6;" x="64.649375" xlink:href="#m6a7e29ca0a" y="77.820673"/>
      </g>
     </g>
    </g>
    <g id="ytick_23">
     <g id="line2d_32">
      <g>
       <use style="stroke:#000000;stroke-width:0.6;" x="64.649375" xlink:href="#m6a7e29ca0a" y="69.730524"/>
      </g>
     </g>
    </g>
    <g id="ytick_24">
     <g id="line2d_33">
      <g>
       <use style="stroke:#000000;stroke-width:0.6;" x="64.649375" xlink:href="#m6a7e29ca0a" y="63.120391"/>
      </g>
     </g>
    </g>
    <g id="ytick_25">
     <g id="line2d_34">
      <g>
       <use style="stroke:#000000;stroke-width:0.6;" x="64.649375" xlink:href="#m6a7e29ca0a" y="57.531603"/>
      </g>
     </g>
    </g>
    <g id="ytick_26">
     <g id="line2d_35">
      <g>
       <use style="stroke:#000000;stroke-width:0.6;" x="64.649375" xlink:href="#m6a7e29ca0a" y="52.690374"/>
      </g>
     </g>
    </g>
    <g id="ytick_27">
     <g id="line2d_36">
      <g>
       <use style="stroke:#000000;stroke-width:0.6;" x="64.649375" xlink:href="#m6a7e29ca0a" y="48.420108"/>
      </g>
     </g>
    </g>
    <g id="ytick_28">
     <g id="line2d_37">
      <g>
       <use style="stroke:#000000;stroke-width:0.6;" x="64.649375" xlink:href="#m6a7e29ca0a" y="19.469927"/>
      </g>
     </g>
    </g>
    <g id="text_14">
     <!-- Cdk1:CycB relative concentration (a.u.) -->
     <g transform="translate(17.837813 283.345625)rotate(-90)scale(0.14 -0.14)">
      <defs>
       <path d="M 45.40625 46.390625 
L 45.40625 75.984375 
L 54.390625 75.984375 
L 54.390625 0 
L 45.40625 0 
L 45.40625 8.203125 
Q 42.578125 3.328125 38.25 0.953125 
Q 33.9375 -1.421875 27.875 -1.421875 
Q 17.96875 -1.421875 11.734375 6.484375 
Q 5.515625 14.40625 5.515625 27.296875 
Q 5.515625 40.1875 11.734375 48.09375 
Q 17.96875 56 27.875 56 
Q 33.9375 56 38.25 53.625 
Q 42.578125 51.265625 45.40625 46.390625 
z
M 14.796875 27.296875 
Q 14.796875 17.390625 18.875 11.75 
Q 22.953125 6.109375 30.078125 6.109375 
Q 37.203125 6.109375 41.296875 11.75 
Q 45.40625 17.390625 45.40625 27.296875 
Q 45.40625 37.203125 41.296875 42.84375 
Q 37.203125 48.484375 30.078125 48.484375 
Q 22.953125 48.484375 18.875 42.84375 
Q 14.796875 37.203125 14.796875 27.296875 
z
" id="DejaVuSans-100"/>
       <path d="M 9.078125 75.984375 
L 18.109375 75.984375 
L 18.109375 31.109375 
L 44.921875 54.6875 
L 56.390625 54.6875 
L 27.390625 29.109375 
L 57.625 0 
L 45.90625 0 
L 18.109375 26.703125 
L 18.109375 0 
L 9.078125 0 
z
" id="DejaVuSans-107"/>
       <path d="M 11.71875 12.40625 
L 22.015625 12.40625 
L 22.015625 0 
L 11.71875 0 
z
M 11.71875 51.703125 
L 22.015625 51.703125 
L 22.015625 39.3125 
L 11.71875 39.3125 
z
" id="DejaVuSans-58"/>
       <path d="M 19.671875 34.8125 
L 19.671875 8.109375 
L 35.5 8.109375 
Q 43.453125 8.109375 47.28125 11.40625 
Q 51.125 14.703125 51.125 21.484375 
Q 51.125 28.328125 47.28125 31.5625 
Q 43.453125 34.8125 35.5 34.8125 
z
M 19.671875 64.796875 
L 19.671875 42.828125 
L 34.28125 42.828125 
Q 41.5 42.828125 45.03125 45.53125 
Q 48.578125 48.25 48.578125 53.8125 
Q 48.578125 59.328125 45.03125 62.0625 
Q 41.5 64.796875 34.28125 64.796875 
z
M 9.8125 72.90625 
L 35.015625 72.90625 
Q 46.296875 72.90625 52.390625 68.21875 
Q 58.5 63.53125 58.5 54.890625 
Q 58.5 48.1875 55.375 44.234375 
Q 52.25 40.28125 46.1875 39.3125 
Q 53.46875 37.75 57.5 32.78125 
Q 61.53125 27.828125 61.53125 20.40625 
Q 61.53125 10.640625 54.890625 5.3125 
Q 48.25 0 35.984375 0 
L 9.8125 0 
z
" id="DejaVuSans-66"/>
       <path d="M 41.109375 46.296875 
Q 39.59375 47.171875 37.8125 47.578125 
Q 36.03125 48 33.890625 48 
Q 26.265625 48 22.1875 43.046875 
Q 18.109375 38.09375 18.109375 28.8125 
L 18.109375 0 
L 9.078125 0 
L 9.078125 54.6875 
L 18.109375 54.6875 
L 18.109375 46.1875 
Q 20.953125 51.171875 25.484375 53.578125 
Q 30.03125 56 36.53125 56 
Q 37.453125 56 38.578125 55.875 
Q 39.703125 55.765625 41.0625 55.515625 
z
" id="DejaVuSans-114"/>
       <path d="M 31 75.875 
Q 24.46875 64.65625 21.28125 53.65625 
Q 18.109375 42.671875 18.109375 31.390625 
Q 18.109375 20.125 21.3125 9.0625 
Q 24.515625 -2 31 -13.1875 
L 23.1875 -13.1875 
Q 15.875 -1.703125 12.234375 9.375 
Q 8.59375 20.453125 8.59375 31.390625 
Q 8.59375 42.28125 12.203125 53.3125 
Q 15.828125 64.359375 23.1875 75.875 
z
" id="DejaVuSans-40"/>
       <path d="M 8.5 21.578125 
L 8.5 54.6875 
L 17.484375 54.6875 
L 17.484375 21.921875 
Q 17.484375 14.15625 20.5 10.265625 
Q 23.53125 6.390625 29.59375 6.390625 
Q 36.859375 6.390625 41.078125 11.03125 
Q 45.3125 15.671875 45.3125 23.6875 
L 45.3125 54.6875 
L 54.296875 54.6875 
L 54.296875 0 
L 45.3125 0 
L 45.3125 8.40625 
Q 42.046875 3.421875 37.71875 1 
Q 33.40625 -1.421875 27.6875 -1.421875 
Q 18.265625 -1.421875 13.375 4.4375 
Q 8.5 10.296875 8.5 21.578125 
z
M 31.109375 56 
z
" id="DejaVuSans-117"/>
       <path d="M 8.015625 75.875 
L 15.828125 75.875 
Q 23.140625 64.359375 26.78125 53.3125 
Q 30.421875 42.28125 30.421875 31.390625 
Q 30.421875 20.453125 26.78125 9.375 
Q 23.140625 -1.703125 15.828125 -13.1875 
L 8.015625 -13.1875 
Q 14.5 -2 17.703125 9.0625 
Q 20.90625 20.125 20.90625 31.390625 
Q 20.90625 42.671875 17.703125 53.65625 
Q 14.5 64.65625 8.015625 75.875 
z
" id="DejaVuSans-41"/>
      </defs>
      <use xlink:href="#DejaVuSans-67"/>
      <use x="69.824219" xlink:href="#DejaVuSans-100"/>
      <use x="133.300781" xlink:href="#DejaVuSans-107"/>
      <use x="191.210938" xlink:href="#DejaVuSans-49"/>
      <use x="254.833984" xlink:href="#DejaVuSans-58"/>
      <use x="288.525391" xlink:href="#DejaVuSans-67"/>
      <use x="358.349609" xlink:href="#DejaVuSans-121"/>
      <use x="417.529297" xlink:href="#DejaVuSans-99"/>
      <use x="472.509766" xlink:href="#DejaVuSans-66"/>
      <use x="541.113281" xlink:href="#DejaVuSans-32"/>
      <use x="572.900391" xlink:href="#DejaVuSans-114"/>
      <use x="611.763672" xlink:href="#DejaVuSans-101"/>
      <use x="673.287109" xlink:href="#DejaVuSans-108"/>
      <use x="701.070312" xlink:href="#DejaVuSans-97"/>
      <use x="762.349609" xlink:href="#DejaVuSans-116"/>
      <use x="801.558594" xlink:href="#DejaVuSans-105"/>
      <use x="829.341797" xlink:href="#DejaVuSans-118"/>
      <use x="888.521484" xlink:href="#DejaVuSans-101"/>
      <use x="950.044922" xlink:href="#DejaVuSans-32"/>
      <use x="981.832031" xlink:href="#DejaVuSans-99"/>
      <use x="1036.8125" xlink:href="#DejaVuSans-111"/>
      <use x="1097.994141" xlink:href="#DejaVuSans-110"/>
      <use x="1161.373047" xlink:href="#DejaVuSans-99"/>
      <use x="1216.353516" xlink:href="#DejaVuSans-101"/>
      <use x="1277.876953" xlink:href="#DejaVuSans-110"/>
      <use x="1341.255859" xlink:href="#DejaVuSans-116"/>
      <use x="1380.464844" xlink:href="#DejaVuSans-114"/>
      <use x="1421.578125" xlink:href="#DejaVuSans-97"/>
      <use x="1482.857422" xlink:href="#DejaVuSans-116"/>
      <use x="1522.066406" xlink:href="#DejaVuSans-105"/>
      <use x="1549.849609" xlink:href="#DejaVuSans-111"/>
      <use x="1611.03125" xlink:href="#DejaVuSans-110"/>
      <use x="1674.410156" xlink:href="#DejaVuSans-32"/>
      <use x="1706.197266" xlink:href="#DejaVuSans-40"/>
      <use x="1745.210938" xlink:href="#DejaVuSans-97"/>
      <use x="1806.490234" xlink:href="#DejaVuSans-46"/>
      <use x="1838.277344" xlink:href="#DejaVuSans-117"/>
      <use x="1901.65625" xlink:href="#DejaVuSans-46"/>
      <use x="1933.443359" xlink:href="#DejaVuSans-41"/>
     </g>
    </g>
   </g>
   <g id="line2d_38">
    <path clip-path="url(#p34b9224dad)" d="M 66.499239 249.197556 
L 66.563556 247.742697 
L 66.692316 244.970143 
L 66.950496 239.900861 
L 67.274707 234.289808 
L 67.60099 229.313855 
L 67.929861 224.843373 
L 68.261912 220.785144 
L 68.597747 217.069976 
L 68.937993 213.645112 
L 69.283311 210.469537 
L 69.63436 207.510885 
L 69.991747 204.742508 
L 70.356099 202.143194 
L 70.728022 199.694828 
L 71.108033 197.382265 
L 71.496669 195.192477 
L 71.89434 193.114588 
L 72.301475 191.138625 
L 72.718412 189.255993 
L 73.145474 187.458852 
L 73.582875 185.740733 
L 74.030846 184.095095 
L 74.489549 182.516527 
L 74.959126 180.999931 
L 75.439702 179.540788 
L 75.931349 178.134789 
L 76.434156 176.778091 
L 76.948159 175.467388 
L 77.473429 174.199575 
L 78.009984 172.9716 
L 78.557896 171.781075 
L 79.117181 170.625825 
L 79.687859 169.503524 
L 80.269982 168.412608 
L 80.863569 167.351526 
L 81.46862 166.318848 
L 82.085134 165.313557 
L 82.71304 164.3347 
L 83.352285 163.381674 
L 84.002958 162.453808 
L 84.66488 161.550739 
L 85.338051 160.672381 
L 86.022114 159.818889 
L 86.71707 158.99047 
L 87.422382 158.187461 
L 88.13805 157.410563 
L 88.863718 156.66057 
L 89.598492 155.938283 
L 90.342373 155.24475 
L 91.094468 154.581174 
L 91.854419 153.948687 
L 92.621156 153.348728 
L 93.394321 152.782462 
L 94.172843 152.251234 
L 94.956185 151.756296 
L 95.743456 151.298757 
L 96.533584 150.879815 
L 97.326212 150.500294 
L 98.120268 150.161016 
L 98.915039 149.862481 
L 99.70981 149.605095 
L 100.504223 149.388981 
L 101.297208 149.214194 
L 102.088586 149.080403 
L 102.877821 148.987159 
L 103.664378 148.933698 
L 104.448078 148.919266 
L 105.228385 148.942721 
L 106.005121 149.002909 
L 106.778107 149.098459 
L 107.547165 149.227899 
L 108.312116 149.389699 
L 109.072782 149.582192 
L 109.829162 149.803689 
L 110.581435 150.052391 
L 111.329244 150.326508 
L 112.072947 150.624312 
L 112.812364 150.943922 
L 113.547674 151.283628 
L 114.278877 151.641681 
L 115.005973 152.016354 
L 115.729141 152.405929 
L 116.44856 152.80877 
L 117.164228 153.22339 
L 117.876325 153.648237 
L 118.584851 154.081835 
L 119.290163 154.522712 
L 119.992083 154.9697 
L 120.690788 155.421498 
L 121.239146 155.780013 
" style="fill:none;stroke:#ff0000;stroke-linecap:square;stroke-width:3;"/>
   </g>
   <g id="line2d_39">
    <path clip-path="url(#p34b9224dad)" d="M 189.946713 172.254296 
L 198.287964 171.366196 
L 208.473027 170.043833 
L 221.081148 168.16905 
L 238.517532 165.336141 
L 302.680569 154.729219 
L 323.952421 151.549446 
L 343.272613 148.884499 
L 361.862495 146.533581 
L 380.902348 144.346017 
L 400.399314 142.332942 
L 420.356965 140.499451 
L 440.780658 138.844818 
L 445.555313 138.488232 
L 445.555313 138.488232 
" style="fill:none;stroke:#ff0000;stroke-linecap:square;stroke-width:3;"/>
   </g>
   <g id="line2d_40">
    <path clip-path="url(#p34b9224dad)" d="M 121.932851 156.237436 
L 122.623522 156.696474 
L 123.311513 157.156143 
L 123.997005 157.615492 
L 124.679997 158.073686 
L 125.360668 158.529936 
L 126.039196 158.983412 
L 126.715581 159.43342 
L 127.390002 159.879408 
L 128.062638 160.320717 
L 128.733666 160.756836 
L 129.402909 161.187241 
L 130.070545 161.611571 
L 130.736931 162.029458 
L 131.402067 162.440337 
L 132.065953 162.844101 
L 132.728768 163.240364 
L 133.390511 163.628922 
L 134.051362 164.009479 
L 134.711319 164.381935 
L 135.370563 164.746094 
L 136.029092 165.101867 
L 136.687086 165.449072 
L 137.344544 165.787732 
L 138.001644 166.117576 
L 138.65821 166.438855 
L 139.314418 166.751311 
L 139.970268 167.054903 
L 140.625941 167.34992 
L 141.281435 167.636129 
L 141.93675 167.913628 
L 142.591886 168.182417 
L 143.247023 168.442727 
L 143.901981 168.694471 
L 144.556939 168.93768 
L 145.211897 169.17262 
L 145.866677 169.399346 
L 146.521635 169.617806 
L 147.176593 169.828301 
L 147.831551 170.0308 
L 148.486509 170.225508 
L 149.141646 170.412526 
L 149.796782 170.592081 
L 150.451919 170.764056 
L 151.107056 170.928813 
L 151.762371 171.086485 
L 152.417507 171.237096 
L 153.073001 171.380794 
L 153.728316 171.517856 
L 154.383632 171.648322 
L 155.039125 171.772242 
L 155.694441 171.88991 
L 156.349934 172.001509 
L 157.00525 172.106979 
L 157.660743 172.206634 
L 158.316059 172.300548 
L 158.971374 172.388922 
L 159.626689 172.471714 
L 160.281826 172.549256 
L 160.937141 172.621639 
L 161.592099 172.688954 
L 162.247057 172.751422 
L 162.902015 172.809018 
L 163.556795 172.861843 
L 164.211395 172.91025 
L 164.865996 172.954222 
L 165.52024 172.993867 
L 166.174484 173.029297 
L 166.828549 173.060624 
L 167.482436 173.088089 
L 168.136144 173.111557 
L 168.789674 173.131398 
L 169.442846 173.147479 
L 170.096019 173.160048 
L 170.748834 173.1691 
L 171.401471 173.174884 
L 172.053929 173.177399 
L 172.70603 173.176645 
L 173.357953 173.172872 
L 174.009697 173.166082 
L 174.661084 173.156402 
L 175.312292 173.143961 
L 175.963143 173.128635 
L 176.613816 173.110678 
L 177.264131 173.090096 
L 177.91409 173.066893 
L 178.56387 173.041323 
L 179.213292 173.013393 
L 179.862358 172.983107 
L 180.511245 172.950597 
L 181.159775 172.915868 
L 181.807948 172.878928 
L 182.455942 172.840031 
L 183.103579 172.79906 
L 183.750681 172.756021 
L 184.397782 172.711172 
L 185.044348 172.664517 
L 185.690556 172.616066 
L 186.336587 172.565823 
L 186.982081 172.513798 
L 187.627397 172.460245 
L 188.272355 172.404923 
L 188.916957 172.348211 
L 189.302647 172.31344 
" style="fill:none;stroke:#808080;stroke-dasharray:11.1,4.8;stroke-dashoffset:0;stroke-width:3;"/>
   </g>
   <g id="line2d_41">
    <path clip-path="url(#p34b9224dad)" d="M 114.742955 86.653569 
L 114.811522 78.943863 
L 114.993831 78.249196 
L 115.349523 77.763887 
L 116.328032 77.175661 
L 118.030244 76.584385 
L 124.267523 74.831398 
L 134.716855 71.686251 
L 166.164485 62.040514 
L 179.056874 58.337225 
L 195.006746 54.005352 
L 211.358556 49.84771 
L 233.820869 44.562177 
L 252.696268 40.500195 
L 276.325113 35.855022 
L 279.712396 35.229788 
L 296.975577 32.193433 
L 312.162105 29.737401 
L 324.425605 27.912097 
L 336.621253 26.247875 
L 347.259858 25.012126 
L 351.7435 24.580025 
L 356.316421 24.312812 
L 358.582348 24.418007 
L 359.134098 24.613017 
L 359.264447 24.809922 
L 359.264447 24.809922 
" style="fill:none;stroke:#008000;stroke-linecap:square;stroke-width:3;"/>
   </g>
   <g id="line2d_42">
    <path clip-path="url(#p34b9224dad)" d="M 114.742955 198.572903 
L 114.811522 201.677305 
L 114.993831 202.119435 
L 115.811993 203.16688 
L 118.626456 206.082976 
L 125.558512 213.276632 
L 129.467012 217.642359 
L 132.745731 221.578395 
L 136.031592 225.879793 
L 138.661602 229.689615 
L 140.633797 232.856064 
L 142.605278 236.393008 
L 144.572831 240.403251 
L 146.530027 244.914154 
L 150.390137 254.108862 
L 151.664699 256.66901 
L 152.936403 258.812176 
L 154.205964 260.553545 
L 155.473919 261.949738 
L 156.740088 263.068932 
L 158.004471 263.965777 
L 159.897029 264.968788 
L 161.784408 265.672618 
L 163.039506 266.006197 
L 164.291747 266.195817 
L 166.164485 266.213819 
L 170.505993 265.715702 
L 176.024211 265.167197 
L 180.263225 264.88332 
L 185.048633 264.71927 
L 190.356151 264.547203 
L 191.524647 264.579892 
L 192.107467 264.498458 
L 193.850034 264.524072 
L 204.685234 264.433878 
L 206.923662 264.356037 
L 212.458665 264.361636 
L 216.826421 264.333805 
L 221.143644 264.274793 
L 223.2844 264.265019 
L 232.778971 264.217891 
L 233.820869 264.244548 
L 234.860267 264.257418 
L 238.994645 264.155664 
L 239.508898 264.231217 
L 241.560195 264.060828 
L 242.582451 264.10003 
L 243.092954 264.022593 
L 244.112889 264.095397 
L 244.621785 264.017046 
L 246.144901 264.092464 
L 254.697925 263.946705 
L 255.696076 263.979934 
L 257.68702 263.787901 
L 258.679813 263.946243 
L 259.670821 263.932407 
L 281.642629 263.561564 
L 282.124741 263.657848 
L 283.088965 263.523091 
L 284.051404 263.550459 
L 286.454821 263.549394 
L 287.894015 263.528259 
L 289.333209 263.480257 
L 289.811749 263.669138 
L 292.204453 263.550915 
L 292.681209 263.620035 
L 295.545311 263.330584 
L 296.498821 263.434744 
L 297.452332 263.357201 
L 302.68414 263.222953 
L 303.159109 263.109028 
L 303.634079 263.219335 
L 304.109049 263.136987 
L 305.058988 263.22446 
L 306.007141 263.087848 
L 306.480325 263.151576 
L 306.955295 263.032028 
L 307.901663 263.160754 
L 308.849817 263.057676 
L 309.323001 263.118797 
L 309.796185 262.992465 
L 311.215737 263.14571 
L 312.162105 263.010143 
L 313.579871 263.041775 
L 314.053055 263.17731 
L 314.997637 262.932006 
L 315.469036 263.011792 
L 315.94222 262.905849 
L 317.358201 262.970156 
L 317.829599 262.870304 
L 318.300997 263.124659 
L 319.24558 262.864782 
L 319.716978 263.076437 
L 320.659775 262.831216 
L 321.129388 262.998007 
L 322.072185 262.775194 
L 322.543583 263.212855 
L 323.484594 262.860752 
L 323.955993 263.201856 
L 324.897004 262.871349 
L 325.366617 262.745876 
L 330.066316 262.630473 
L 331.473369 262.54797 
L 332.410809 262.576684 
L 334.283903 262.49652 
L 337.555122 262.397374 
L 338.021164 262.846727 
L 338.487205 262.490611 
L 339.419289 262.205313 
L 340.349586 262.284248 
L 340.813842 262.458275 
L 341.740569 262.137373 
L 342.204825 262.245933 
L 342.667295 262.115291 
L 344.972505 262.237864 
L 345.890303 261.939116 
L 346.347417 262.501691 
L 346.80453 262.153761 
L 347.259858 261.987741 
L 347.715186 262.066933 
L 348.622271 261.814212 
L 349.970399 261.80247 
L 350.416799 261.672403 
L 351.7435 261.673703 
L 352.180972 261.600697 
L 352.614873 261.641077 
L 354.730809 261.384563 
L 355.137925 261.331588 
L 355.539685 261.162731 
L 356.691397 261.146358 
L 357.052089 260.977368 
L 357.398495 260.959946 
L 357.728831 261.526111 
L 358.325221 260.839776 
L 358.582348 260.944513 
L 358.993036 260.4815 
L 359.134098 260.967593 
L 359.264447 260.331157 
L 359.264447 260.331157 
" style="fill:none;stroke:#008000;stroke-linecap:square;stroke-width:3;"/>
   </g>
   <g id="line2d_43">
    <path clip-path="url(#p34b9224dad)" d="M 121.239324 155.780013 
L 121.238967 155.618478 
L 121.227004 154.853129 
L 121.147187 153.143907 
L 120.915059 150.677689 
L 120.498479 148.050119 
L 119.948871 145.689929 
L 119.348017 143.689811 
L 118.727164 141.914886 
L 118.099168 140.249887 
L 117.473673 138.612944 
L 116.861212 136.930476 
L 116.278571 135.124358 
L 115.753604 133.116683 
L 115.329167 130.86909 
L 115.041864 128.464624 
L 114.88116 126.064949 
L 114.802415 123.751755 
L 114.766882 121.525561 
L 114.752061 119.37996 
L 114.746169 117.297143 
L 114.744026 115.268642 
L 114.743312 113.276 
L 114.743133 111.298767 
L 114.742955 109.306545 
L 114.742955 107.251183 
L 114.742955 105.053012 
L 114.742955 102.538027 
L 114.742955 99.332028 
L 114.742955 95.119154 
L 114.742955 91.565723 
L 114.742955 89.019666 
L 114.742955 86.982092 
" style="fill:none;stroke:#0000ff;stroke-dasharray:11.1,4.8;stroke-dashoffset:0;stroke-width:3;"/>
   </g>
   <g id="line2d_44">
    <path clip-path="url(#p34b9224dad)" d="M 359.266233 24.829461 
L 359.155525 25.086763 
L 358.621631 25.561849 
L 357.419922 26.303865 
L 354.187986 27.98493 
L 347.588409 31.258807 
L 338.040805 36.181501 
L 330.3163 40.479155 
L 324.070271 44.225117 
L 318.313497 47.952621 
L 311.490719 52.799395 
L 307.289202 56.105658 
L 303.618009 59.270211 
L 299.952172 62.76227 
L 296.820229 66.063838 
L 292.138386 71.439443 
L 284.938847 79.756737 
L 276.810796 89.164629 
L 272.986041 93.998989 
L 268.395263 100.322384 
L 265.116901 105.279432 
L 262.308153 109.899125 
L 258.751237 116.225284 
L 256.246041 120.543489 
L 254.397945 123.330158 
L 252.383788 125.96871 
L 250.23214 128.434481 
L 247.405535 131.330061 
L 243.287941 135.162464 
L 235.359699 142.068933 
L 227.256646 148.891064 
L 223.501529 151.80488 
L 219.748555 154.45211 
L 216.000045 156.841088 
L 211.633896 159.36118 
L 206.038183 162.310749 
L 192.151929 169.433358 
L 190.572208 170.525272 
L 189.709228 171.360214 
L 189.417104 171.825152 
L 189.305504 172.238851 
L 189.445673 171.765226 
L 190.177055 170.864331 
L 191.691244 169.725588 
L 193.95717 168.390118 
L 198.140831 166.231414 
L 199.970535 165.32662 
L 199.970535 165.32662 
" style="fill:none;stroke:#0000ff;stroke-dasharray:11.1,4.8;stroke-dashoffset:0;stroke-width:3;"/>
   </g>
   <g id="line2d_45">
    <path clip-path="url(#p34b9224dad)" d="M 121.239324 155.780013 
L 121.238967 155.939221 
L 121.227004 156.630039 
L 121.147187 157.87292 
L 120.915059 159.164369 
L 120.498479 160.119695 
L 119.948871 160.747016 
L 119.348017 161.188235 
L 118.727164 161.568266 
L 118.099168 161.960167 
L 117.473673 162.419672 
L 116.861212 163.004671 
L 116.278571 163.784568 
L 115.753604 164.847702 
L 115.329167 166.268919 
L 115.041864 168.007728 
L 114.88116 169.913487 
L 114.802415 171.869282 
L 114.766882 173.833646 
L 114.752061 175.79494 
L 114.746169 177.754956 
L 114.744026 179.716744 
L 114.743312 181.685357 
L 114.743133 183.667289 
L 114.742955 185.670549 
L 114.742955 187.699468 
L 114.742955 189.759566 
L 114.742955 191.84497 
L 114.742955 193.905212 
L 114.742955 195.678372 
L 114.742955 196.851158 
L 114.742955 197.715047 
L 114.742955 198.451736 
" style="fill:none;stroke:#0000ff;stroke-dasharray:11.1,4.8;stroke-dashoffset:0;stroke-width:3;"/>
   </g>
   <g id="line2d_46">
    <path clip-path="url(#p34b9224dad)" d="M 359.266233 260.558306 
L 359.155525 259.968752 
L 359.023391 262.605717 
L 358.843045 262.160494 
L 358.621631 261.932278 
L 358.362719 260.155942 
L 357.759186 259.703649 
L 357.419922 258.709421 
L 356.686041 258.691857 
L 356.29678 258.185927 
L 355.480761 257.878438 
L 355.057573 257.5176 
L 354.187986 257.23295 
L 353.743372 257.258515 
L 352.836287 256.916302 
L 352.375602 256.362717 
L 351.441733 256.073589 
L 350.49358 256.36858 
L 350.015039 256.916555 
L 349.534713 256.315843 
L 349.050815 256.139363 
L 348.565132 255.675314 
L 348.077663 254.736743 
L 347.097369 254.30469 
L 345.611749 254.369572 
L 345.115353 253.572434 
L 344.117202 253.064779 
L 343.615449 253.094975 
L 342.610156 252.677547 
L 341.599506 252.045937 
L 340.079961 251.409795 
L 339.571065 251.104331 
L 338.551487 250.809338 
L 335.478469 249.487204 
L 334.449964 249.131584 
L 333.935711 249.081648 
L 333.419673 249.146098 
L 332.903634 248.329846 
L 332.387596 248.052834 
L 331.869772 248.042123 
L 328.759257 246.523259 
L 327.720037 246.313232 
L 327.198642 246.149846 
L 326.679033 245.576961 
L 325.636242 245.091245 
L 324.070271 244.576243 
L 323.025695 243.854201 
L 314.642303 239.961753 
L 314.117337 239.537015 
L 305.716089 235.05488 
L 304.141189 234.112176 
L 301.521714 232.629319 
L 300.475353 231.890272 
L 299.952172 231.699594 
L 298.907596 230.997288 
L 296.820229 229.738663 
L 295.777439 228.98214 
L 295.256044 228.745564 
L 294.215039 228.016124 
L 292.657996 226.978872 
L 290.584914 225.556644 
L 289.551052 224.808196 
L 285.440601 221.727429 
L 276.810796 214.895509 
L 272.986041 211.601202 
L 262.706341 202.11692 
L 261.911749 201.155782 
L 261.122514 199.826524 
L 259.149426 195.737373 
L 256.683513 190.716924 
L 255.344313 188.434495 
L 253.90869 186.439268 
L 252.383788 184.745384 
L 250.780319 183.339892 
L 249.11614 182.194637 
L 247.405535 181.250008 
L 245.071756 180.240472 
L 242.688694 179.454102 
L 239.662281 178.700826 
L 235.978052 178.039745 
L 231.631009 177.499865 
L 225.379088 176.991093 
L 216.624469 176.518724 
L 204.180266 175.853928 
L 198.650798 175.372663 
L 194.448389 174.782097 
L 192.151929 174.26587 
L 190.572208 173.696365 
L 189.709228 173.138181 
L 189.417104 172.765844 
L 189.305504 172.387199 
L 189.445673 172.816738 
L 189.761724 173.185953 
L 190.649525 173.732744 
L 192.241387 174.290632 
L 194.543383 174.799191 
L 198.140831 175.315253 
L 199.970535 175.508808 
L 199.970535 175.508808 
" style="fill:none;stroke:#0000ff;stroke-dasharray:11.1,4.8;stroke-dashoffset:0;stroke-width:3;"/>
   </g>
   <g id="patch_3">
    <path d="M 64.649375 278.328812 
L 64.649375 12.216812 
" style="fill:none;stroke:#000000;stroke-linecap:square;stroke-linejoin:miter;stroke-width:0.8;"/>
   </g>
   <g id="patch_4">
    <path d="M 421.769375 278.328812 
L 421.769375 12.216812 
" style="fill:none;stroke:#000000;stroke-linecap:square;stroke-linejoin:miter;stroke-width:0.8;"/>
   </g>
   <g id="patch_5">
    <path d="M 64.649375 278.328812 
L 421.769375 278.328812 
" style="fill:none;stroke:#000000;stroke-linecap:square;stroke-linejoin:miter;stroke-width:0.8;"/>
   </g>
   <g id="patch_6">
    <path d="M 64.649375 12.216812 
L 421.769375 12.216812 
" style="fill:none;stroke:#000000;stroke-linecap:square;stroke-linejoin:miter;stroke-width:0.8;"/>
   </g>
  </g>
 </g>
 <defs>
  <clipPath id="p34b9224dad">
   <rect height="266.112" width="357.12" x="64.649375" y="12.216812"/>
  </clipPath>
 </defs>
</svg>
